<svg width="51" height="52" viewBox="0 0 51 52" fill="none" xmlns="http://www.w3.org/2000/svg">
<g id="Frame" clip-path="url(#clip0_30_4965)">
<g id="Group">
<path id="Vector" d="M28.9253 51.9994C28.6716 51.2421 28.4178 50.7373 28.1641 49.98C27.6566 48.7178 27.9104 47.9606 28.9253 46.9508C29.4328 46.446 29.9402 45.9411 30.4477 45.4363C30.7014 45.1839 30.7014 45.1839 30.7014 44.9314C30.194 43.6693 29.9402 42.1547 29.4328 40.8926C29.4328 40.6402 29.179 40.6402 29.179 40.6402C27.9104 40.6402 26.6417 40.3877 25.6268 40.1353C25.3731 40.1353 25.1193 40.1353 24.8656 40.1353C16.9999 43.4169 9.13426 46.6984 1.52232 49.7276C1.26859 49.98 1.01486 49.7275 0.761125 49.4751C-6.935e-05 48.4654 -6.935e-05 48.4654 1.01486 47.9606C5.58202 45.9411 10.1492 44.1742 14.7163 42.1547C15.2238 42.1547 15.2238 42.1547 15.2238 41.6499C14.4626 39.1256 13.4477 36.6013 12.6865 33.8246C12.6865 33.5722 12.4328 33.3198 12.179 33.5722C8.6268 35.0868 4.82083 36.3489 1.26859 37.8635C0.761125 38.1159 0.507393 38.1159 0.507393 37.611C0.507393 37.1062 -6.93649e-05 36.8538 0.253662 36.6013C0.507393 36.3489 1.01486 36.3489 1.26859 36.0965C7.61187 33.5722 13.9552 31.0479 20.2984 28.5237C20.5522 28.5237 20.8059 28.2712 20.8059 28.0188C21.0596 27.2615 21.0596 26.5042 21.3134 25.4945C21.3134 24.9897 21.8208 24.2324 22.3283 23.98C22.582 23.7275 22.582 23.7275 22.582 23.4751C22.0746 22.7178 21.8208 22.4654 21.0596 22.4654C19.2835 22.4654 17.7611 22.213 16.4925 21.7081C15.7313 21.4557 15.2238 21.2033 14.7163 20.9508C13.7014 20.1936 12.4328 20.1936 11.4178 19.9411C10.6566 19.9411 9.64172 19.9411 8.88053 19.4363C6.85068 18.9314 5.83575 17.6693 5.58202 15.9023C5.32829 13.6305 6.08948 12.1159 7.8656 11.1062C8.11933 10.8538 8.11933 10.8538 8.11933 10.6013C7.8656 10.0965 7.35814 9.3392 7.61187 8.83434C7.61187 7.57221 8.37306 6.81493 9.38799 6.5625C12.179 5.55279 14.7163 4.54308 17.5074 3.7858C20.5522 2.52366 23.8507 1.26153 26.8955 0.25182C28.4178 -0.253034 29.6865 0.25182 30.194 1.76638C30.4477 2.27124 30.7014 2.52366 31.2089 2.27124C33.2387 2.01881 34.7611 3.02852 35.5223 4.54308C36.5372 6.31007 36.2835 7.82464 35.0149 9.3392C34.2537 10.0965 33.4925 11.1062 32.985 11.8635C32.7313 12.1159 32.7313 12.3683 32.4775 12.8732C32.2238 14.6402 31.2089 16.4072 29.9402 17.9217C29.4328 18.4266 28.9253 18.9314 28.4178 19.4363C27.9104 19.9411 27.9104 20.1936 28.1641 20.6984C28.4178 21.2033 28.4178 21.2033 28.9253 20.9508C29.9402 20.446 30.9552 19.9411 31.9701 19.6887C33.2387 19.1839 34.7611 19.6887 35.2686 21.2033C36.0298 22.9703 36.5372 24.4848 37.2984 26.2518C38.3134 28.7761 39.0746 31.3004 40.0895 33.8246C40.5969 35.3392 40.0895 36.6013 38.8208 37.3586C37.8059 37.8635 36.791 38.3683 35.5223 38.8732C35.5223 39.1256 35.5223 39.378 35.5223 39.6305C36.0298 40.6402 36.2835 41.6499 36.791 42.6596C36.791 42.912 37.0447 42.912 37.2984 42.912C38.3134 42.912 39.3283 42.912 40.3432 42.912C41.3581 43.1644 41.8656 43.6693 42.1193 44.4266C42.3731 44.9314 42.3731 45.4363 42.6268 45.9411C42.8805 46.1936 42.6268 46.446 42.3731 46.6984C38.5671 48.213 35.0149 49.4751 31.2089 50.9897C30.4477 51.2421 29.6865 51.4945 29.179 51.9994C28.9253 51.9994 28.9253 51.9994 28.9253 51.9994ZM30.9552 10.8538C30.9552 10.0965 30.9552 9.59163 30.7014 8.83434C30.4477 6.81493 29.4328 4.54308 28.9253 2.52366C28.6716 1.76638 28.4178 1.51396 27.6566 2.01881C21.8208 4.03823 15.985 6.05765 10.1492 8.07706C9.38799 8.32949 9.13426 8.83434 9.64172 9.59163C10.1492 11.3586 10.9104 13.1256 11.6716 14.8926C12.9402 18.1742 15.4775 20.1936 19.0298 20.6984C20.2984 20.9508 21.5671 20.9508 22.8358 21.2033C23.0895 21.2033 23.3432 21.2033 23.3432 21.7081C23.3432 21.9606 23.5969 22.213 23.8507 22.7178C23.8507 22.9703 24.1044 22.9703 24.3581 22.9703C25.1193 22.7178 26.1343 22.213 26.8955 21.9606C27.1492 21.9606 27.1492 21.7081 27.1492 21.7081C26.8955 21.2033 26.8955 20.9508 26.6417 20.446C26.388 19.9411 26.6417 19.6887 26.8955 19.4363C27.6566 18.679 28.4178 17.6693 29.179 16.912C30.194 15.145 30.9552 13.1256 30.9552 10.8538ZM31.2089 38.8732C31.4626 38.8732 31.7163 38.8732 31.9701 38.6208C33.9999 37.611 35.776 36.6013 37.8059 35.8441C39.0746 35.0868 39.0746 35.0868 38.5671 33.8246C38.5671 33.5722 38.3134 33.5722 38.0596 33.5722C37.2984 33.8246 36.5372 34.0771 35.5223 34.3295C35.0149 34.3295 34.7611 34.8343 34.2537 34.5819C33.9999 34.3295 33.9999 33.8246 33.7462 33.5722C33.4925 33.3198 33.7462 33.0674 33.9999 33.0674C35.0149 32.8149 36.0298 32.3101 37.0447 32.0576C37.2984 32.0576 37.2984 31.8052 37.2984 31.5528C37.0447 30.7955 36.791 30.2907 36.5372 29.5334C36.5372 29.2809 36.2835 29.2809 36.0298 29.2809C35.2686 29.5334 34.5074 29.7858 33.4925 30.0382C32.985 30.2907 32.4775 30.5431 32.2238 30.2907C31.9701 30.0382 31.9701 29.5334 31.7163 29.0285C31.4626 28.7761 31.7163 28.5237 31.9701 28.5237C32.985 28.2712 34.2537 27.7664 35.2686 27.514C35.5223 27.514 35.5223 27.2615 35.5223 27.0091C35.2686 26.2518 35.0149 25.747 34.7611 24.9897C34.7611 24.7373 34.5074 24.7373 34.2537 24.7373C33.4925 24.9897 32.4775 25.2421 31.7163 25.4945C31.2089 25.4945 30.7014 25.9994 30.4477 25.747C30.194 25.4945 30.194 24.9897 29.9402 24.4848C29.9402 24.2324 29.9402 24.2324 30.194 23.98C31.2089 23.7275 32.4775 23.2227 33.4925 22.9703C33.7462 22.9703 33.9999 22.7178 33.7462 22.4654C33.4925 22.213 33.4925 21.7081 33.2387 21.4557C32.985 20.6984 32.4775 20.6984 31.9701 20.9508C28.9253 22.213 25.8805 23.4751 22.8358 24.9897C23.0895 25.2421 22.8358 25.4945 22.8358 25.9994C22.582 26.7567 22.582 27.2615 22.3283 28.0188C22.3283 28.5237 22.0746 29.0285 22.3283 29.2809C23.3432 31.8052 24.1044 34.5819 24.8656 37.1062C25.1193 37.8635 25.3731 38.1159 26.1343 38.3683C27.9104 38.3683 29.4328 38.6208 31.2089 38.8732ZM19.5372 37.8635C19.5372 38.1159 19.5372 38.1159 19.5372 37.8635C19.0298 38.1159 18.776 38.1159 18.2686 38.3683C18.0149 38.6208 17.7611 38.3683 17.7611 38.1159C17.2537 36.6013 16.7462 35.0868 16.2387 33.8246C15.985 33.3198 15.985 32.5625 15.7313 32.3101C15.2238 32.0576 14.7163 32.5625 14.2089 32.8149C13.9552 32.8149 13.9552 33.0674 13.9552 33.3198C14.9701 35.8441 15.7313 38.6208 16.4925 41.145C16.4925 41.3974 16.7462 41.3974 16.9999 41.3974C19.0298 40.6402 21.0596 39.6305 23.0895 38.8732C23.3432 38.8732 23.3432 38.6208 23.3432 38.3683C22.3283 35.8441 21.5671 33.0674 20.8059 30.5431C20.8059 30.2907 20.5522 30.2907 20.2984 30.2907C19.5372 30.5431 18.5223 31.0479 17.5074 31.3004C17.2537 31.3004 17.2537 31.5528 17.2537 31.8052C18.0149 33.5722 18.5223 35.5916 19.0298 37.3586C19.5372 37.611 19.5372 37.8635 19.5372 37.8635ZM38.0596 44.4266C37.5522 44.4266 36.791 44.4266 36.2835 44.4266C35.0149 44.679 33.9999 45.1839 32.985 45.4363C32.985 45.4363 32.7313 45.4363 32.7313 45.6887C31.9701 46.446 30.9552 47.2033 30.194 48.213C29.9402 48.4654 29.6865 48.9703 29.9402 49.4751C29.9402 49.7275 30.194 49.7276 30.4477 49.7276C33.7462 48.4654 37.0447 47.2033 40.3432 45.6887C40.8507 45.4363 40.8507 45.1839 40.5969 44.679C40.3432 44.4266 40.0895 44.4266 39.8358 44.4266C39.0746 44.4266 38.5671 44.4266 38.0596 44.4266ZM11.6716 18.1741C11.4178 17.9217 11.1641 17.6693 11.1641 17.4169C10.1492 16.1547 9.64172 14.6402 8.88053 12.8732C8.88053 12.6208 8.6268 12.6208 8.37306 12.8732C7.61187 13.6305 7.10441 14.3877 7.35814 15.6499C7.61187 16.912 8.11933 17.6693 9.38799 18.1741C10.1492 18.1741 10.9104 18.1741 11.6716 18.1741ZM31.2089 4.03823C31.7163 5.80522 32.4775 7.57221 32.7313 9.59163C33.2387 9.08677 33.4925 8.83434 33.7462 8.32949C34.5074 7.31978 34.5074 6.31007 33.9999 5.30036C33.2387 4.29065 32.4775 4.03823 31.2089 4.03823ZM30.9552 40.6402C31.2089 41.6499 31.7163 42.6596 31.9701 43.6693C31.9701 43.9217 32.2238 43.9217 32.2238 43.9217C32.985 43.6693 33.7462 43.4169 34.5074 43.1644C34.7611 43.1644 34.7611 42.912 34.7611 42.6596C34.5074 41.9023 33.9999 41.145 33.7462 40.3877C33.4925 40.1353 33.4925 40.1353 33.2387 40.1353C32.7313 40.3877 31.9701 40.8926 30.9552 40.6402Z" fill="white"/>
<path id="Vector_2" d="M47.7013 9.59098C47.7013 9.84341 47.7013 9.84341 47.7013 9.59098C47.7013 10.0958 47.7013 10.3483 46.9401 10.6007C44.6565 10.8531 43.3879 12.6201 43.3879 14.892C43.3879 15.6492 43.3879 15.6492 42.6267 15.6492C41.6118 15.6492 41.6118 15.6492 41.6118 14.6395C41.358 12.3677 40.0894 10.8531 37.5521 10.6007C37.2983 10.6007 37.2983 10.6007 37.2983 10.3483C37.2983 9.84341 37.2983 9.59098 37.2983 9.08613C37.5521 8.8337 38.0595 8.8337 38.3133 8.8337C40.3431 8.32885 41.358 6.81428 41.358 4.54244C41.358 3.78516 41.358 3.78516 42.1192 3.78516C43.1342 3.78516 43.1342 3.78516 43.1342 4.79486C43.1342 7.06671 44.6565 8.58127 46.9401 8.8337C47.4476 8.8337 47.4476 9.08613 47.4476 9.59098C47.7013 9.59098 47.7013 9.59098 47.7013 9.59098ZM44.6566 9.59098C43.8954 9.08613 43.3879 8.58127 42.8804 7.82399C42.8804 7.57156 42.6267 7.57156 42.6267 7.82399C42.1192 8.58127 41.6118 9.08613 40.8506 9.59098C41.6118 10.0958 42.1192 10.6007 42.6267 11.358C42.8804 11.6104 42.8804 11.6104 42.8804 11.358C43.1342 10.6007 43.8954 10.0958 44.6566 9.59098Z" fill="white"/>
<path id="Vector_3" d="M0.253418 26.505C0.253418 25.7478 0.253418 25.7478 0.760881 25.4953C3.04446 25.2429 4.56685 23.7283 4.56685 21.4565C4.56685 20.6992 4.56685 20.6992 5.32804 20.6992C6.08924 20.6992 6.08924 20.6992 6.34297 21.4565C6.34297 23.7283 7.86536 25.4953 10.1489 25.7478C10.4027 25.7478 10.4027 25.7478 10.4027 26.0002C10.4027 26.505 10.4027 26.7575 10.4027 27.2623C10.1489 27.7672 9.64148 27.5148 9.38775 27.5148C7.61163 28.0196 6.34297 29.5342 6.34297 31.5536C6.34297 31.806 6.34297 31.806 6.34297 32.0584C6.34297 32.3109 6.34297 32.3109 6.08924 32.3109C5.83551 32.3109 5.58178 32.3109 5.32804 32.3109C4.56685 32.3109 4.56685 32.3109 4.56685 31.5536C4.56685 30.5439 4.31312 29.7866 3.80566 29.0293C3.04446 28.0196 2.02954 27.2623 0.760881 27.2623C0.253418 27.2623 0.253418 27.0099 0.253418 26.505ZM3.29819 26.505C4.05939 27.0099 4.82058 27.7672 5.32804 28.5245C5.83551 27.7672 6.5967 27.0099 7.3579 26.505C6.5967 26.0002 5.83551 25.2429 5.32804 24.4856C4.82058 25.2429 4.05939 26.0002 3.29819 26.505Z" fill="white"/>
<path id="Vector_4" d="M51.0002 26.5035C51.0002 26.7559 51.0002 27.0083 51.0002 27.2608C51.0002 27.5132 50.4927 27.2608 50.239 27.5132C47.9554 28.018 46.6867 29.5326 46.6867 31.8045C46.6867 32.5617 46.6867 32.5617 45.9255 32.5617C44.9106 32.5617 44.9106 32.5617 44.9106 31.552C44.9106 29.2802 43.3882 27.7656 40.8509 27.5132C40.5972 27.5132 40.5972 27.5132 40.5972 27.2608C40.5972 26.7559 40.5972 26.5035 40.5972 25.9986C40.8509 25.7462 41.3584 25.7462 41.6121 25.7462C43.3882 25.2413 44.6569 23.7268 44.6569 21.7074C44.6569 21.4549 44.6569 21.4549 44.6569 21.2025C44.6569 20.9501 44.6569 20.9501 44.9106 20.9501C45.4181 20.9501 45.9255 20.6977 46.1793 20.9501C46.433 21.2025 46.1793 21.7074 46.1793 22.2122C46.1793 23.9792 47.7016 25.4938 49.4778 25.9986C51.0002 25.7462 51.0002 25.7462 51.0002 26.5035ZM45.9255 24.4841C45.4181 25.2413 44.6569 25.9986 43.8957 26.5035C44.6569 27.0083 45.4181 27.7656 45.9255 28.5229C46.433 27.7656 47.1942 27.0083 47.9554 26.5035C47.1942 25.9986 46.433 25.2413 45.9255 24.4841Z" fill="white"/>
<path id="Vector_5" d="M28.418 10.3486C28.418 12.6204 27.9105 14.3874 26.6418 15.902C26.3881 16.1544 26.3881 16.1544 26.1344 15.902C25.6269 15.6496 25.3732 15.3971 25.1195 15.1447C25.1195 14.8923 25.6269 14.6398 25.6269 14.135C26.6418 12.6204 26.6418 11.1059 26.3881 9.33888C26.1344 8.07674 25.6269 6.81461 24.8657 5.55247C24.8657 5.30004 24.8657 5.04762 25.1195 5.04762C25.3732 5.04762 25.6269 4.79519 25.8806 4.54276C26.1344 4.29033 26.3881 4.29033 26.6418 4.79519C27.6568 6.56218 28.418 8.5816 28.418 10.3486Z" fill="white"/>
</g>
</g>
<defs>
<clipPath id="clip0_30_4965">
<rect width="51" height="52" fill="white"/>
</clipPath>
</defs>
</svg>
