<svg width="60" height="44" viewBox="0 0 60 44" fill="none" xmlns="http://www.w3.org/2000/svg">
<g id="Icon">
<path id="Vector" d="M0 35.8053C0.356272 35.0928 0.534408 34.5584 1.06882 34.024C1.60322 33.6677 2.13763 33.3114 2.67204 32.9552C3.20645 32.777 3.74086 32.4207 4.27526 32.0645C3.02831 31.5301 2.13763 30.8175 1.24695 29.9268C0.89068 29.3924 0.712544 29.0362 1.06882 28.3236C1.60322 26.8985 1.60322 25.4734 1.78136 24.0484C1.9595 22.267 1.78136 20.4856 2.4939 18.7043C3.74086 15.8541 6.41289 14.0727 9.26307 14.0727C12.4695 14.0727 15.3197 16.2104 16.2104 19.4168C16.5666 20.6638 16.5666 21.7326 16.7448 22.9795C16.7448 24.5828 16.9229 26.0079 17.2792 27.6111C17.2792 27.7892 17.2792 27.7892 17.2792 27.9673C17.9917 29.0362 17.4573 29.9268 16.5666 30.6394C16.0322 31.1738 15.1416 31.7082 14.2509 32.0645C14.6071 32.4207 14.9634 32.4207 15.4978 32.2426C17.1011 31.5301 18.7043 30.9957 20.3075 30.4613C20.8419 30.2831 21.3763 30.105 21.7326 29.3924C21.9107 28.858 22.6233 28.3236 22.9795 27.9673C23.1577 27.7892 23.3358 27.6111 23.3358 27.2548C23.3358 26.5423 23.3358 25.8297 23.3358 25.1172C23.3358 24.7609 23.3358 24.5828 22.9795 24.4046C20.6638 22.267 19.595 19.595 19.595 16.5666C19.595 15.3197 19.4168 14.2509 19.0605 13.0039C18.348 10.1538 18.1699 7.30357 19.595 4.63154C21.1982 1.78136 23.6921 0.178136 26.8985 0C31.1738 0 35.6272 0 39.9025 0C40.615 0 40.9713 0.356272 40.9713 1.06882C40.9713 4.09713 40.9713 7.30358 40.9713 10.3319C40.9713 11.5788 40.7931 12.6477 40.2587 13.8946C40.0806 14.2509 40.0806 14.7853 40.0806 15.1416C40.0806 16.9229 40.0806 18.7043 39.368 20.3075C38.8336 21.9107 37.7648 23.1577 36.5179 24.4046C36.3397 24.5828 36.1616 24.7609 36.1616 25.1172V25.2953C35.9835 26.8985 36.3397 28.1455 37.5867 29.0362L37.7648 29.2143C37.943 29.9268 38.6555 30.105 39.1899 30.2831C40.2587 30.6394 41.3275 30.9957 42.3964 31.5301C42.9308 31.7082 43.287 31.7082 43.8214 31.5301C44.1777 31.3519 44.3559 31.3519 44.7121 31.3519C45.7809 30.9957 45.9591 30.8175 45.6028 29.7487C45.6028 29.5706 45.4247 29.5706 45.2465 29.3924C43.4652 27.9673 42.7526 26.0079 42.7526 23.6921C42.7526 22.9795 42.5745 22.267 42.2182 21.5545C40.615 18.348 43.1089 14.2509 46.6716 14.0727C49.6999 13.8946 52.7282 14.0727 55.7566 13.8946C56.4691 13.8946 56.6472 14.2509 56.8254 14.9634C56.8254 16.5666 56.8254 17.9917 56.8254 19.595C56.8254 20.3075 56.6472 21.02 56.291 21.7326C55.9347 22.267 55.9347 22.9795 55.9347 23.6921C55.9347 25.1172 55.7566 26.5423 54.8659 27.6111C54.5096 28.3236 53.9752 28.858 53.4408 29.2143C52.9064 29.5706 53.0845 30.105 53.0845 30.6394C53.0845 30.9957 53.4408 30.9957 53.7971 31.1738C54.8659 31.5301 55.9347 31.7082 56.8254 32.0645C58.6067 32.5989 59.4974 34.024 59.4974 35.8053C59.4974 38.1211 59.4974 40.4369 59.4974 42.7526C59.4974 43.4652 59.1411 43.8215 58.6067 43.8215C58.0723 43.8215 57.7161 43.4652 57.7161 42.7526C57.7161 40.615 57.7161 38.4774 57.7161 36.1616C57.7161 34.7365 57.1816 34.2021 55.9347 33.6677C54.8659 33.3114 53.7971 32.9552 52.7282 32.777C52.5501 32.777 52.372 32.777 52.1938 32.9552C51.6594 33.4896 50.9469 34.2021 50.4125 34.7365C50.2343 34.9147 50.2343 35.0928 50.2343 35.4491C50.2343 37.943 50.2343 40.2587 50.2343 42.7526C50.2343 42.9308 50.2343 43.287 50.0562 43.4652C49.8781 43.8215 49.5218 43.9996 49.1655 43.9996C48.8093 43.9996 48.453 43.6433 48.453 43.287C48.453 42.9308 48.453 42.7526 48.453 42.3964C48.453 40.0806 48.453 37.7648 48.453 35.4491C48.453 35.0928 48.453 34.9147 48.0967 34.5584C47.7404 34.2021 47.206 33.8458 46.8498 33.3114C46.3154 32.777 45.7809 32.4207 45.2465 32.9552C46.3154 34.2021 46.4935 35.6272 46.4935 37.2304C46.4935 39.0118 46.4935 40.9713 46.4935 42.7526C46.4935 43.287 46.3154 43.6433 45.7809 43.6433C45.4247 43.8215 45.0684 43.4652 44.8903 43.1089C44.7121 42.9308 44.8903 42.5745 44.8903 42.3964C44.8903 40.4369 44.8903 38.2992 44.8903 36.3397C44.8903 34.7365 44.1777 33.8458 42.7526 33.1333C41.1494 32.5989 39.5462 31.8863 37.943 31.3519C37.5867 31.1738 37.4086 31.3519 37.2304 31.5301C36.696 32.5989 35.9835 33.4896 35.2709 34.3802C34.3802 35.6272 33.1333 35.8053 32.0645 34.7365C31.7082 34.3802 31.3519 34.024 30.9957 33.6677C30.8175 33.8458 30.8175 34.024 30.8175 34.3802C30.8175 37.0523 30.8175 39.7243 30.8175 42.3964C30.8175 42.5745 30.8175 42.9308 30.8175 43.1089C30.6394 43.4652 30.2831 43.8215 29.9268 43.6433C29.5706 43.6433 29.2143 43.4652 29.2143 42.9308C29.2143 42.7526 29.2143 42.3964 29.2143 42.2182C29.2143 39.5462 29.2143 37.0523 29.2143 34.3802C29.2143 34.2021 29.2143 34.024 29.0362 33.6677C28.6799 34.024 28.3236 34.5584 27.7892 34.9147C26.7204 35.8053 25.4734 35.8053 24.7609 34.5584C24.0484 33.4896 23.3358 32.5989 22.8014 31.5301C22.6233 31.1738 22.4451 31.1738 22.0889 31.3519C20.4856 32.0645 18.7043 32.5989 17.1011 33.1333C15.676 33.6677 14.9634 34.5584 14.9634 36.1616C14.9634 38.1211 14.9634 40.0806 14.9634 42.0401C14.9634 42.2182 14.9634 42.3964 14.9634 42.5745C14.9634 43.1089 14.6071 43.4652 14.0727 43.4652C13.5383 43.4652 13.1821 43.1089 13.1821 42.3964C13.1821 40.0806 13.1821 37.7648 13.1821 35.6272C13.1821 34.9147 13.3602 34.3802 13.7165 33.8458C13.7165 33.6677 14.0727 33.4896 13.7165 33.3114C13.3602 33.1333 13.1821 32.777 12.8258 33.1333C12.6477 33.3114 12.2914 33.4896 12.1132 33.8458C10.51 35.4491 8.37239 35.4491 6.76917 33.8458C5.87849 32.9552 5.87849 32.9552 4.80967 33.4896C4.27526 33.6677 3.74086 34.024 3.20645 34.2021C2.13763 35.0928 1.78136 35.8053 1.78136 36.8741C1.78136 38.8336 1.78136 40.615 1.78136 42.5745C1.78136 43.1089 1.78136 43.6433 1.24695 43.8215C0.712544 44.1777 0.356272 43.8215 0 43.4652C0 40.7931 0 38.2992 0 35.8053ZM32.9552 1.78136C31.1738 1.78136 29.2143 1.78136 27.4329 1.78136C24.4046 1.78136 21.7326 3.56272 21.02 6.4129C20.3075 8.72866 20.4856 11.0444 21.1982 13.3602C21.3763 13.8946 21.3763 14.429 21.3763 15.1416C21.3763 16.0322 21.3763 17.1011 21.5545 17.9917C22.267 22.0889 25.8297 25.2953 29.9268 25.1172C33.6677 25.1172 37.0523 22.4451 37.943 18.8824C38.2992 17.6355 38.2992 16.2104 38.2992 14.9634C38.2992 14.429 38.2992 13.8946 38.6555 13.3602C39.0118 12.6477 39.1899 11.757 39.1899 11.0444C39.368 8.19425 39.1899 5.16594 39.1899 2.31577C39.368 1.78136 39.1899 1.78136 38.8336 1.78136C36.8741 1.78136 34.9146 1.78136 32.9552 1.78136ZM50.9469 15.8541C50.2343 15.8541 49.3437 15.8541 48.6311 15.8541C47.9186 15.8541 47.3842 15.8541 46.6716 16.0322C44.3559 16.5666 42.9308 19.2387 44.3559 21.3763C44.7121 21.9107 44.8903 22.6233 44.8903 23.3358C44.8903 24.2265 44.8903 24.939 45.0684 25.8297C45.7809 27.6111 46.8498 28.858 48.8093 29.0362C50.7688 29.3924 52.7282 28.3236 53.6189 26.7204C54.1533 25.8297 54.1533 24.939 54.1533 24.0484C54.1533 22.9795 54.1533 22.0889 54.6877 21.1982C54.8659 20.8419 54.8659 20.4856 55.044 20.1294C55.2221 18.8824 55.044 17.6355 55.2221 16.2104C55.2221 15.8541 55.044 15.8541 54.8659 15.8541C53.6189 15.8541 52.1938 15.8541 50.9469 15.8541ZM14.9634 23.3358C14.9634 21.7326 14.7853 20.1294 13.8946 18.7043C12.1132 15.4978 7.48171 14.9634 4.98781 17.8136C3.91899 19.4168 3.56272 21.1982 3.56272 23.1577C3.56272 23.3358 3.56272 23.3358 3.74086 23.3358C4.4534 23.5139 4.63153 24.0484 4.63153 24.5828C4.63153 24.7609 4.63153 25.1172 4.63153 25.2953C5.16594 27.2548 6.76917 28.6799 8.55053 28.858C11.2226 29.0362 13.0039 27.6111 13.5383 25.8297C13.7165 25.1172 13.7165 24.5828 13.3602 24.0484C12.2914 22.4451 10.6882 21.9107 8.9068 21.3763C8.01612 21.1982 7.30357 21.3763 6.9473 22.0889C6.76917 22.267 6.76917 22.4451 6.59103 22.4451C6.23476 22.8014 5.70035 22.8014 5.34408 22.4451C4.98781 22.0889 4.98781 21.5545 5.34408 21.1982C5.87849 20.6638 6.23476 20.1294 6.76917 19.595C6.9473 19.7731 7.30357 19.595 7.65985 19.595C10.6882 19.9512 13.1821 20.8419 14.9634 23.3358ZM25.1172 25.8297C25.1172 26.186 25.1172 26.5423 25.1172 26.7204C25.1172 27.2548 25.2953 27.4329 25.6516 27.7892C26.8985 28.6799 28.1455 29.5706 29.5706 30.4613C29.7487 30.6394 29.9268 30.6394 30.105 30.4613C31.5301 29.5706 32.9552 28.5018 34.2021 27.6111C34.3802 27.4329 34.5584 27.4329 34.5584 27.0767C34.5584 26.7204 34.5584 26.186 34.5584 25.8297C31.5301 27.4329 28.3236 27.4329 25.1172 25.8297ZM31.1738 31.8863C31.8863 32.5989 32.4207 33.1333 33.1333 33.8458C33.4896 34.2021 33.4896 34.024 33.6677 33.8458C34.3802 32.777 34.9146 31.8863 35.6272 30.8175C36.1616 30.105 36.1616 30.105 35.4491 29.3924C35.2709 29.2143 35.0928 29.2143 34.9147 29.3924C33.8458 30.105 32.5989 30.9957 31.1738 31.8863ZM28.5018 31.8863C27.2548 30.9957 26.0079 30.2831 24.939 29.3924C24.5828 29.0362 24.2265 29.0362 24.0484 29.5706C23.8702 29.7487 23.5139 29.9268 23.6921 30.2831C24.5828 31.5301 25.4734 32.9552 26.3641 34.2021C27.0767 33.3114 27.7892 32.5989 28.5018 31.8863ZM7.30357 30.4613C7.30357 30.8175 7.48171 31.1738 7.30357 31.3519C6.9473 32.0645 7.48171 32.5989 8.01612 32.9552C8.55053 33.4896 9.44121 33.6677 10.1537 33.1333C10.6882 32.9552 11.0444 32.5989 11.2226 32.0645C11.4007 31.8863 11.0444 31.5301 11.0444 31.1738C11.0444 30.8175 11.2226 30.4613 11.0444 30.2831C10.8663 30.105 10.51 30.2831 10.1537 30.4613C9.26307 30.8175 8.37239 30.8175 7.30357 30.4613ZM47.5623 30.4613C47.5623 30.8175 47.3842 31.1738 47.7404 31.5301C48.2748 32.0645 48.8093 32.5989 49.3437 32.9552C49.5218 33.1333 49.5218 33.3114 49.6999 33.1333C50.2343 32.5989 50.9469 31.8863 51.4813 31.3519C51.6594 31.1738 51.4813 30.8175 51.4813 30.6394C51.4813 30.4613 51.3032 30.6394 51.125 30.6394C49.8781 30.8175 48.8093 30.8175 47.5623 30.4613ZM3.38458 26.8985C3.20645 27.6111 3.20645 28.1455 3.02831 28.5018C3.02831 28.6799 2.85018 28.858 3.02831 29.0362C3.74086 29.7487 4.63154 30.2831 5.70035 30.6394C5.70035 30.2831 5.87849 29.7487 5.52221 29.5706C4.4534 28.858 3.91899 27.9673 3.38458 26.8985ZM15.3197 26.8985C14.7853 27.7892 14.2509 28.6799 13.3602 29.3924C13.0039 29.7487 13.0039 30.105 13.0039 30.4613C13.0039 30.6394 13.1821 30.6394 13.3602 30.6394C14.2509 30.2831 14.9634 29.9268 15.676 29.2143C15.8541 29.0362 15.8541 29.0362 15.8541 28.858C15.4978 28.1455 15.4978 27.6111 15.3197 26.8985Z" fill="white"/>
<path id="Vector_2" d="M55.9342 40.2584C55.9342 41.1491 55.9342 42.0398 55.9342 42.9305C55.9342 43.643 55.5779 43.9993 55.0435 43.9993C54.5091 43.9993 54.1528 43.643 54.1528 42.9305C54.1528 41.1491 54.1528 39.3678 54.1528 37.5864C54.1528 36.8739 54.5091 36.5176 55.0435 36.5176C55.5779 36.5176 55.9342 36.8739 55.9342 37.5864C55.9342 38.4771 55.9342 39.3678 55.9342 40.2584Z" fill="white"/>
<path id="Vector_3" d="M5.52246 40.7922C5.52246 41.5048 5.52246 42.2173 5.52246 42.9299C5.52246 43.4643 5.16619 43.8206 4.63178 43.8206C4.09737 43.8206 3.7411 43.4643 3.7411 42.7517C3.7411 41.3267 3.7411 39.9016 3.7411 38.4765C3.7411 37.9421 4.09737 37.5858 4.63178 37.5858C5.16619 37.5858 5.52246 37.9421 5.52246 38.6546C5.52246 39.3672 5.52246 40.0797 5.52246 40.7922Z" fill="white"/>
<path id="Vector_4" d="M18.7041 41.149C18.7041 40.6146 18.7041 39.9021 18.7041 39.3676C18.7041 38.6551 19.0604 38.2988 19.5948 38.2988C20.1292 38.2988 20.4855 38.6551 20.4855 39.3676C20.4855 40.6146 20.4855 41.6834 20.4855 42.9304C20.4855 43.6429 20.1292 43.9992 19.5948 43.9992C19.0604 43.9992 18.7041 43.6429 18.7041 42.9304C18.7041 42.2178 18.7041 41.6834 18.7041 41.149Z" fill="white"/>
<path id="Vector_5" d="M39.3685 41.1485C39.3685 40.6141 39.3685 39.9015 39.3685 39.3671C39.3685 38.8327 39.7248 38.4765 40.2592 38.4765C40.7936 38.4765 41.1498 38.8327 41.1498 39.3671C41.1498 40.6141 41.1498 41.861 41.1498 43.108C41.1498 43.6424 40.7936 43.9987 40.2592 43.9987C39.7248 43.9987 39.3685 43.6424 39.3685 43.108C39.3685 42.3954 39.3685 41.6829 39.3685 41.1485Z" fill="white"/>
<path id="Vector_6" d="M28.8581 8.01769C30.9957 8.01769 33.3115 8.37396 35.4491 9.44278C35.9835 9.79905 36.5179 10.1553 37.0524 10.5116C37.4086 10.8679 37.4086 11.4023 37.0524 11.7585C36.6961 12.1148 36.1617 12.1148 35.8054 11.7585C34.2022 10.3335 32.2427 9.97719 30.2832 9.79905C28.3237 9.62091 26.5423 9.79905 24.5828 9.97719C24.2266 9.97719 24.2266 10.1553 24.2266 10.5116C24.2266 11.046 24.2266 11.4023 24.2266 11.9367C24.2266 12.6492 23.8703 13.0055 23.3359 13.0055C22.8015 13.0055 22.4452 12.6492 22.4452 11.9367C22.4452 11.4023 22.4452 10.8679 22.4452 10.3335C22.4452 9.26464 23.1578 8.5521 24.2266 8.37396C25.6517 8.01769 27.0767 8.01769 28.8581 8.01769Z" fill="white"/>
<path id="Vector_7" d="M47.0287 18.7031C48.81 18.8813 50.5914 18.8813 52.3728 19.5938C52.5509 19.5938 52.729 19.7719 52.729 19.7719C53.0853 19.9501 53.2634 20.3063 53.0853 20.8408C52.9072 21.3752 52.5509 21.5533 52.0165 21.3752C50.2351 20.8408 48.6319 20.4845 46.8506 20.4845C46.138 20.4845 45.7817 20.1282 45.7817 19.5938C45.7817 19.0594 46.3161 18.7031 47.0287 18.7031Z" fill="white"/>
</g>
</svg>
