<svg width="51" height="35" viewBox="0 0 51 35" fill="none" xmlns="http://www.w3.org/2000/svg">
<g id="Frame" clip-path="url(#clip0_30_4972)">
<g id="Group">
<path id="Vector" d="M50.1667 21.0426C49.7266 21.472 49.5066 21.6867 48.8465 21.9014C46.6462 22.5456 45.106 24.2634 44.0059 26.1959C43.1257 28.1284 42.0256 29.8462 40.4854 31.3493C38.7251 33.2818 36.5249 34.5702 33.8845 34.9996C31.0241 35.4291 28.3838 34.7849 26.1835 32.8524C25.7434 32.6376 25.5234 32.2082 25.0833 31.7788C24.8633 31.564 24.8633 31.564 24.4232 31.7788C23.5431 32.2082 22.883 32.6376 22.0029 33.0671C20.6828 33.7113 19.3626 33.7113 18.2624 33.0671C11.0015 29.8462 5.50073 24.9076 1.98026 17.8217C0.880117 15.4597 0 12.883 0 10.0916C0 5.3677 3.52047 1.07323 8.36111 0.21433C12.9817 -0.644566 16.7222 0.858502 19.8026 4.29409C20.0227 4.50881 20.0227 4.72353 20.4627 4.29409C23.1031 1.07323 26.8436 -0.429842 31.0241 -0.000393674C35.8648 0.429054 39.6053 4.29408 40.2654 9.01801C40.2654 9.66218 40.2654 10.3064 40.2654 10.9505C40.2654 11.38 39.8253 11.8094 39.3852 11.8094C38.9452 11.8094 38.5051 11.5947 38.2851 11.1653C38.0651 10.9505 38.2851 10.5211 38.2851 10.3064C38.2851 7.72967 37.405 5.58243 35.6447 3.86464C33.8845 2.14685 31.6842 1.50267 29.2639 1.7174C25.5234 2.14685 22.883 3.64991 21.1228 6.87077C20.6828 7.72967 19.8026 7.72967 19.3626 6.87077C17.8224 4.29409 15.6221 2.79102 12.5417 2.14685C7.70102 1.07323 3.08041 3.86464 2.20029 8.58856C1.76023 10.3064 2.20029 12.2389 2.64035 13.9567C3.96053 18.4659 6.60088 22.1162 9.90132 25.1223C12.5417 27.699 15.6221 29.6315 18.9225 31.1346C19.8026 31.564 20.4627 31.564 21.3428 31.1346C22.0029 30.7051 22.663 30.4904 23.5431 30.061C23.7632 30.061 23.7632 30.061 23.7632 29.8462C22.0029 26.6254 22.663 23.4045 24.6433 20.6131C27.0636 16.9628 30.5841 14.8156 34.9846 14.1714C39.6053 13.5272 43.7858 14.3861 47.5263 16.9628C48.6265 17.8217 49.5066 18.6806 50.1667 19.9689C50.1667 20.3984 50.1667 20.6131 50.1667 21.0426ZM25.0833 28.5579C26.4035 26.8401 27.5037 25.5518 29.0439 24.0487C30.5841 22.7603 32.1243 21.472 33.8845 20.6131C34.5446 20.1837 35.2047 20.6131 35.4247 21.2573C35.6447 21.6867 35.2047 22.1162 34.7646 22.3309C31.2442 24.2634 28.6038 27.0548 26.4035 30.061C26.1835 30.2757 26.1835 30.2757 26.4035 30.4904C28.1637 32.2082 30.144 33.0671 32.7844 33.0671C34.9846 33.0671 36.7449 31.9935 38.5051 30.4904C40.0453 29.2021 41.1455 27.4843 42.0256 25.5518C43.3458 23.1898 44.886 21.0426 47.7463 20.1837C47.9664 20.1837 47.9664 19.9689 47.7463 19.9689C47.5263 19.5395 47.0863 19.3248 46.8662 18.8953C42.9057 15.6745 36.0848 14.6008 31.2442 17.1775C28.3838 18.6806 25.9635 20.8278 25.0833 24.0487C24.4232 25.7665 24.4232 27.0548 25.0833 28.5579Z" fill="white"/>
</g>
</g>
<defs>
<clipPath id="clip0_30_4972">
<rect width="50.1667" height="35" fill="white"/>
</clipPath>
</defs>
</svg>
