<svg width="39" height="58" viewBox="0 0 39 58" fill="none" xmlns="http://www.w3.org/2000/svg">
<g id="Frame" clip-path="url(#clip0_30_4949)">
<g id="Group">
<path id="Vector" d="M6.4774 56.5277C6.08484 55.1537 5.79043 53.8779 5.79043 52.6021C5.79043 50.8356 6.08484 49.0691 6.77182 47.4008C6.96809 46.9101 7.26251 46.7138 7.7532 46.9101C8.2439 47.1064 8.34204 47.4989 8.14576 47.8915C8.04762 47.9896 8.04762 48.1859 7.94948 48.3822C7.55693 49.658 7.26251 51.0319 7.26251 52.4059C7.26251 53.7798 7.55693 55.0556 7.94948 56.2333C8.04762 56.4295 8.14576 56.5277 8.34204 56.5277C10.5011 56.5277 12.7583 56.5277 14.9173 56.5277C15.2117 56.5277 15.2117 56.4295 15.3099 56.2333C15.5062 53.5835 15.8006 50.8356 15.9969 48.1859C16.095 46.7138 16.2913 45.2417 16.3894 43.6715C16.4876 42.592 15.9969 41.7087 15.8006 40.7273C15.7024 40.4329 15.5062 40.6292 15.408 40.7273C14.6229 41.0218 13.9359 41.4143 13.1508 41.7087C12.4639 42.0031 12.0713 41.8069 11.9732 41.0218C11.6788 39.059 11.3843 37.0962 11.1881 35.1334C10.9918 33.6614 11.0899 33.6614 9.61784 34.0539C8.14576 34.4465 6.77182 34.839 5.39787 35.4278C2.9444 36.4092 1.37418 38.5683 1.37418 41.218C1.37418 42.1013 1.37418 42.9845 1.37418 43.8678C1.37418 44.3585 1.17791 44.6529 0.687212 44.751C0.196519 44.751 -0.0978975 44.4566 0.00024125 43.8678C0.00024125 42.3957 -0.196036 40.9236 0.196519 39.4515C0.88349 36.7037 2.64999 34.839 5.29973 33.8576C7.94948 32.8762 10.5992 32.0911 13.4452 31.7967C13.8378 31.7967 13.9359 31.6004 14.0341 31.2079C14.1322 29.9321 13.8378 29.0488 12.7583 28.1656C11.0899 26.7916 10.2067 24.927 9.91226 22.768C9.91226 22.4735 9.71598 22.2773 9.42156 22.1791C7.85134 21.6884 7.06623 20.0201 7.55692 18.548C7.7532 17.861 8.2439 17.2722 8.93087 17.0759C9.42156 16.9778 9.42156 16.6834 9.42156 16.2908C9.32342 15.2113 9.22528 14.2299 9.32342 13.1504C9.5197 10.3043 10.6974 7.949 12.7583 6.08437C13.0527 5.78995 13.1508 5.59367 13.249 5.20112C13.4453 2.45323 16.095 0.0979034 18.8429 -0.0983741C22.1796 -0.294652 25.0256 2.15882 25.4182 5.3974C25.4182 5.78995 25.6145 5.98623 25.8107 6.18251C28.2642 8.24342 29.3437 10.9913 29.2456 14.1317C29.2456 14.9169 29.1474 15.702 29.1474 16.3889C29.1474 16.5852 29.1474 16.7815 29.4419 16.8796C30.6195 17.3703 31.2084 18.0573 31.2084 19.3331C31.2084 20.5108 30.5214 21.5903 29.3437 21.9828C28.853 22.1791 28.7549 22.3754 28.6568 22.8661C28.1661 25.3196 26.9884 27.2823 25.0256 28.7544C24.7312 28.9507 24.6331 29.147 24.6331 29.5395C24.6331 30.0302 24.6331 30.6191 24.6331 31.1097C24.6331 31.5023 24.7312 31.6004 25.1238 31.6986C27.9698 32.0911 30.7177 32.8762 33.3674 33.8576C36.5079 35.0353 38.4706 37.7832 38.4706 41.218C38.4706 46.4194 38.4706 51.6207 38.4706 56.9202C38.4706 57.8035 38.2744 57.9016 37.4892 57.9016C25.4182 57.9016 13.249 57.9016 1.17791 57.9016C0.392796 57.9016 0.196519 57.7053 0.196519 56.9202C0.196519 54.2705 0.196519 51.7189 0.196519 49.0691C0.196519 48.3822 0.392796 48.1859 0.88349 48.1859C1.37418 48.1859 1.57046 48.4803 1.57046 49.1673C1.57046 51.4245 1.57046 53.7798 1.57046 56.037C1.57046 56.4295 1.6686 56.5277 2.06115 56.5277C3.4351 56.5277 4.90718 56.5277 6.4774 56.5277ZM23.5535 4.80856C23.5535 4.80856 23.6517 4.80856 23.6517 4.71042C23.5535 4.80856 23.5535 4.80856 23.5535 4.80856C23.848 4.61229 23.5535 4.51415 23.5535 4.31787C22.8666 2.64951 21.1001 1.47185 19.2354 1.37371C17.3708 1.37371 15.6043 2.55137 14.9173 4.21973C14.8192 4.51415 14.7211 4.61229 14.8192 4.9067C15.9969 4.41601 17.1745 4.02345 18.4503 3.92531C20.2168 3.72904 21.9833 3.82718 23.5535 4.80856ZM31.8953 56.5277C33.4656 56.5277 34.9376 56.5277 36.5079 56.5277C36.8023 56.5277 36.9004 56.4295 36.9004 56.1351C36.9004 51.1301 36.9004 46.125 36.9004 41.218C36.9004 38.5683 35.3302 36.4092 32.8767 35.4278C31.5028 34.9372 30.1288 34.4465 28.6568 34.0539C27.1847 33.6614 27.2828 33.6614 27.0865 35.1334C26.8903 37.0962 26.5958 39.059 26.3014 41.0218C26.2033 41.8069 25.8107 42.0031 25.0256 41.7087C24.3386 41.4143 23.7498 41.1199 23.0628 40.8255C22.9647 40.8255 22.8666 40.6292 22.7684 40.8255C22.5722 41.905 21.9833 42.7883 22.0815 43.9659C22.2777 45.7324 22.2777 47.4989 22.3759 49.1673C22.474 51.4245 22.6703 53.6817 22.7684 56.037C22.7684 56.4295 22.8666 56.5277 23.2591 56.5277C25.4182 56.5277 27.6754 56.5277 29.8344 56.5277C30.1288 56.5277 30.3251 56.4295 30.4233 56.1351C31.2084 53.5835 31.3065 51.1301 30.5214 48.5784C30.3251 47.9896 30.5214 47.5971 30.9139 47.4989C31.4046 47.4008 31.6991 47.5971 31.8953 48.0877C32.2879 49.2654 32.4842 50.5412 32.5823 51.817C32.6804 53.4854 32.386 54.9575 31.8953 56.5277ZM19.4317 29.3432C19.7261 29.3432 20.2168 29.2451 20.8057 29.147C24.5349 28.3619 26.8903 25.614 27.2828 21.7866C27.381 21.1977 27.5772 20.9033 28.1661 20.9033C28.9512 20.9033 29.54 20.3145 29.6381 19.6275C29.7363 18.9405 29.3437 18.3517 28.6568 18.3517C26.7921 18.3517 25.4182 17.4685 24.4368 15.9964C24.1424 15.5057 23.9461 14.8187 23.5535 14.6224C23.161 14.328 22.474 14.4262 21.8852 14.4262C21.787 14.4262 21.5908 14.4262 21.4926 14.328C19.5299 14.0336 17.6652 13.5429 16.1931 12.169C15.9969 11.9727 15.8006 12.0708 15.6043 12.169C13.3471 13.3466 11.9732 15.2113 11.1881 17.4685C10.9918 18.0573 10.6974 18.3517 10.0104 18.3517C9.22528 18.3517 8.83273 18.9405 8.93087 19.7257C9.12715 20.4126 9.61784 20.9033 10.4029 21.0015C10.9918 21.0015 11.2862 21.2959 11.2862 21.8847C11.4825 26.2028 15.0155 29.2451 19.4317 29.3432ZM27.6754 14.1317C27.7735 10.2062 25.6145 7.06575 21.9833 5.69181C19.628 4.80856 17.3708 5.3974 15.1136 6.37878C14.7211 6.57506 14.6229 6.77134 14.8192 7.16389C15.0155 7.65459 15.2117 8.24342 15.408 8.73411C16.095 10.5006 17.2727 11.6783 19.0392 12.3652C20.5112 12.8559 22.1796 13.0522 23.7498 13.2485C24.3387 13.2485 24.7312 13.5429 24.9275 14.1317C25.32 15.3094 26.007 16.1927 27.1847 16.7815C27.5772 16.9778 27.6754 16.8796 27.6754 16.4871C27.5772 15.5057 27.6754 14.7206 27.6754 14.1317ZM15.408 30.1284C15.408 30.8153 15.408 31.5023 15.408 32.0911C15.408 33.0725 15.7024 33.8576 16.3894 34.5446C17.1745 35.3297 18.0578 36.1148 18.8429 36.9981C19.0392 37.1944 19.1373 37.1944 19.4317 36.9981C20.315 36.1148 21.1982 35.3297 22.0815 34.4465C22.5722 33.9558 22.8666 33.4651 22.9647 32.7781C23.161 31.8949 22.9647 31.0116 23.0628 30.0302C20.315 30.9135 19.1373 31.2079 15.408 30.1284ZM13.3471 40.0404C14.9173 39.3534 16.3894 38.6664 17.5671 38.0776C16.782 37.1943 16.095 36.4092 15.3099 35.526C14.8192 35.0353 14.3285 34.4465 14.2304 33.8576C14.0341 33.1707 13.7397 33.0725 13.1508 33.2688H13.0527C12.4639 33.1707 12.4639 33.5632 12.562 33.9558C12.6601 34.839 12.7583 35.6241 12.8564 36.5074C13.0527 37.7832 13.249 38.8627 13.3471 40.0404ZM25.8107 33.8576C25.8107 33.5632 25.9089 33.3669 25.5163 33.3669C25.32 33.3669 25.0256 33.2688 24.8293 33.2688C24.5349 33.1707 24.3387 33.2688 24.2405 33.6614C24.0442 34.4465 23.5535 35.0353 22.9647 35.6241C22.2777 36.3111 21.4926 36.9981 20.8057 37.685C20.5112 37.9795 20.6094 38.0776 20.9038 38.1757C22.1796 38.7646 23.3573 39.2553 24.6331 39.8441C24.9275 40.0404 25.0256 39.9422 25.1238 39.5497C25.32 37.685 25.5163 35.8204 25.8107 33.8576ZM13.4452 7.55645C11.5806 8.83225 10.2067 12.5615 10.7955 14.6224C11.7769 13.0522 13.0527 11.8746 14.6229 10.9913C14.9173 10.795 14.8192 10.6969 14.7211 10.5006C14.1322 9.61736 13.8378 8.63597 13.4452 7.55645ZM21.0019 50.2468C20.1187 51.0319 19.2354 51.817 18.3522 52.6021C17.3708 53.3872 16.4876 54.2705 16.6838 55.7426C16.6838 55.8407 16.6838 55.9388 16.6838 56.037C16.6838 56.2333 16.5857 56.4295 16.6838 56.6258C16.8801 56.724 17.0764 56.5277 17.2727 56.4295C18.4503 55.35 19.7261 54.2705 20.9038 53.191C21.0019 53.0928 21.1982 52.9947 21.1982 52.7984C21.1982 51.817 21.1982 51.0319 21.0019 50.2468ZM19.3336 42.3957C19.4317 42.3957 19.5299 42.3957 19.7261 42.3957C20.9038 42.3957 20.9038 42.3957 21.1982 41.3162C21.5908 40.1385 21.4926 40.1385 20.4131 39.5497C19.5299 39.059 18.8429 39.059 18.0578 39.5497C17.2727 40.0404 17.2727 39.9422 17.4689 40.8255C17.7634 42.2976 17.7634 42.2976 19.3336 42.3957ZM20.8057 45.7324C19.628 46.7138 18.6466 47.6952 17.5671 48.5784C17.4689 48.6766 17.3708 48.7747 17.3708 48.8729C17.2727 49.7561 17.1745 50.7375 17.0764 51.817C17.9596 51.0319 18.5485 50.3449 19.3336 49.7561C20.6094 48.8729 21.1982 47.7933 20.8057 46.2231C20.8057 46.125 20.8057 46.0268 20.8057 45.7324ZM20.8057 43.7696C19.8243 43.7696 19.0392 43.7696 18.1559 43.7696C18.0578 43.7696 17.8615 43.6715 17.7634 43.9659C17.6652 44.8492 17.5671 45.7324 17.4689 46.7138C18.7447 45.7324 19.7261 44.751 20.8057 43.7696ZM21.4926 54.7612C21.3945 54.7612 21.3945 54.7612 21.2964 54.7612C20.6094 55.35 20.0205 55.9389 19.2354 56.6258C20.0205 56.6258 20.6094 56.6258 21.1982 56.6258C21.2964 56.6258 21.4926 56.6258 21.4926 56.4295C21.4926 55.8407 21.4926 55.2519 21.4926 54.7612Z" fill="white"/>
<path id="Vector_2" d="M2.6499 49.4621C2.6499 48.1863 2.6499 47.0087 2.6499 45.7329C2.6499 45.144 2.84618 44.8496 3.33687 44.8496C3.82757 44.8496 4.02384 45.144 4.02384 45.7329C4.02384 48.2845 4.02384 50.7379 4.02384 53.2895C4.02384 53.8784 3.72943 54.1728 3.33687 54.1728C2.94432 54.1728 2.6499 53.8784 2.6499 53.2895C2.6499 52.0137 2.6499 50.7379 2.6499 49.4621Z" fill="white"/>
<path id="Vector_3" d="M2.6499 43.2791C2.6499 42.6903 2.94432 42.2978 3.33687 42.3959C3.82757 42.3959 4.02384 42.6903 4.02384 43.2791C4.02384 43.868 3.72943 44.2605 3.33687 44.1624C2.84618 44.1624 2.6499 43.868 2.6499 43.2791Z" fill="white"/>
<path id="Vector_4" d="M23.5537 4.80908C23.5537 4.80908 23.5537 4.71094 23.6519 4.71094C23.5537 4.80908 23.5537 4.80908 23.5537 4.80908Z" fill="white"/>
</g>
</g>
<defs>
<clipPath id="clip0_30_4949">
<rect width="38.3722" height="58" fill="white"/>
</clipPath>
</defs>
</svg>
