<svg width="24" height="24" viewBox="0 0 24 24" fill="none" xmlns="http://www.w3.org/2000/svg">
<path d="M12 24C9.6 24 7.34118 24 4.94118 24C3.52941 24 2.25882 23.5765 1.27059 22.4471C0.423529 21.6 0 20.4706 0 19.2C0 14.4 0 9.74118 0 4.94118C0 2.54118 1.55294 0.705882 3.81176 0.141176C4.09412 0 4.51765 0 4.94118 0C9.6 0 14.4 0 19.0588 0C21.4588 0 23.2941 1.55294 23.8588 3.81176C24 4.23529 24 4.51765 24 4.94118C24 9.6 24 14.2588 24 19.0588C24 21.4588 22.5882 23.2941 20.1882 23.8588C19.7647 24 19.4824 24 19.0588 24C16.6588 24 14.4 24 12 24ZM15.2471 18.9176C15.8118 18.9176 16.3765 18.6353 16.8 18.2118C17.3647 17.6471 17.9294 17.0824 18.4941 16.5176C18.9176 16.0941 18.9176 15.6706 18.4941 15.1059C17.7882 14.4 17.0824 13.6941 16.5176 13.1294C16.3765 12.9882 16.2353 12.9882 16.0941 12.9882C15.5294 13.2706 14.9647 13.5529 14.4 13.8353C14.2588 13.9765 14.1176 13.9765 13.9765 13.8353C12.7059 12.5647 11.4353 11.2941 10.1647 10.1647C10.1647 10.0235 10.1647 9.88235 10.1647 9.74118C10.4471 9.17647 10.7294 8.61176 11.0118 8.04706C11.0118 7.90588 11.1529 7.76471 11.0118 7.62353C10.3059 6.91765 9.6 6.07059 8.75294 5.36471C8.32941 5.08235 7.90588 5.08235 7.62353 5.36471C7.05882 5.92941 6.35294 6.49412 5.78824 7.2C4.94118 8.18824 4.94118 9.45882 5.78824 10.4471C8.47059 12.9882 11.0118 15.5294 13.6941 18.2118C14.1176 18.6353 14.6824 18.7765 15.2471 18.9176Z" fill="#31B97B"/>
</svg>
