<svg width="25" height="24" viewBox="0 0 25 24" fill="none" xmlns="http://www.w3.org/2000/svg">
<path id="Vector" d="M20.3929 0.0718604C20.0583 -0.0990028 19.6455 0.0455737 19.4891 0.391681C19.2588 0.891128 18.9894 1.48696 18.8417 1.81116C16.039 7.69937 12.7411 13.3817 9.13024 18.8099C8.89125 18.4813 8.65227 18.1571 8.4046 17.8373C6.89683 15.8745 5.28912 13.9906 3.54236 12.2382C3.26427 11.9578 2.80803 11.9841 2.56035 12.2908L0.14879 15.2699C-0.0858486 15.5635 -0.0380518 15.9928 0.257419 16.2206C1.16121 16.9216 2.96445 18.3411 3.88997 19.1647C4.55478 19.7562 5.25001 20.3871 5.87137 21.0267C6.76213 21.938 7.50949 22.823 8.05264 23.5064C8.56537 24.1504 9.53434 24.168 10.0688 23.5371C10.399 23.1472 10.6988 22.7923 10.7727 22.7047C15.3655 17.1757 19.6238 11.3006 23.3302 5.13204C23.6952 4.54059 24.1688 3.70818 24.5773 2.99406C24.7685 2.6611 24.6425 2.23175 24.2992 2.06088C23.3085 1.55267 21.3836 0.575688 20.3929 0.0718604Z" fill="#31B97B"/>
</svg>
