<svg width="24" height="24" viewBox="0 0 24 24" fill="none" xmlns="http://www.w3.org/2000/svg">
<path id="Wa Inactive" fill-rule="evenodd" clip-rule="evenodd" d="M12 24H4.94118C3.52941 24 2.25882 23.5765 1.27059 22.4471C0.423529 21.6 0 20.4706 0 19.2V4.94118C0 2.54118 1.55294 0.705882 3.81176 0.141176C4.09412 0 4.51765 0 4.94118 0H19.0588C21.4588 0 23.2941 1.55294 23.8588 3.81176C24 4.23529 24 4.51765 24 4.94118V19.0588C24 21.4588 22.5882 23.2941 20.1882 23.8588C19.7647 24 19.4824 24 19.0588 24H12ZM19.9083 11.8199C19.9083 15.9108 16.9494 19.2867 13.077 19.8229C11.528 20.0414 10.0188 19.8229 8.58896 19.1477C8.46981 19.0882 8.37052 19.0683 8.23151 19.108C7.00028 19.4059 5.7492 19.7038 4.51797 19.9818C4.14065 20.0612 3.98179 19.9222 4.04136 19.525L4.04152 19.5243L4.04154 19.5242C4.29964 18.2932 4.55774 17.0623 4.81584 15.8115C4.85556 15.6328 4.85556 15.4938 4.77613 15.3349C2.53211 10.6483 5.37188 5.08789 10.4954 4.13468C14.7848 3.34033 18.9353 6.14039 19.7693 10.41C19.8686 10.9263 19.9083 11.4426 19.9083 11.8199ZM6.16622 17.8172C6.41546 17.7566 6.6624 17.7005 6.90629 17.6452C7.38141 17.5373 7.84492 17.4321 8.29109 17.3009C8.52939 17.2413 8.70812 17.2612 8.92656 17.3803C10.1379 18.0356 11.4486 18.2938 12.8188 18.0952C16.1948 17.6186 18.5381 14.5405 18.1211 11.1447C17.6842 7.51063 14.1096 5.02831 10.555 5.88223C6.58325 6.83544 4.57754 11.1249 6.42439 14.7788C6.60311 15.1562 6.66269 15.4739 6.56339 15.8909C6.45804 16.2992 6.37889 16.7161 6.29698 17.1476C6.25537 17.3668 6.21305 17.5898 6.16622 17.8172ZM11.6075 15.0166C12.3422 15.4932 13.1564 15.7911 14.0302 15.811C14.2487 15.811 14.487 15.7911 14.7054 15.7117C15.3806 15.5528 15.7579 15.0762 16.1154 14.54C16.3735 14.1429 16.2147 13.7457 15.7778 13.6067C15.7148 13.5882 15.6526 13.5697 15.5907 13.5513C15.321 13.471 15.0595 13.3933 14.7848 13.3287C14.6668 13.2999 14.5672 13.2712 14.4805 13.2462C14.0273 13.1156 13.9249 13.0861 13.3749 13.6861C13.1366 13.9244 12.9181 13.9443 12.6203 13.8053C12.3422 13.6861 12.0841 13.5074 11.8458 13.3088C11.2302 12.8123 10.6344 12.296 10.1578 11.6407C9.93937 11.3428 9.93937 11.1244 10.1777 10.8265C10.2571 10.7073 10.3564 10.5683 10.4557 10.4492C10.555 10.2903 10.5947 10.1116 10.5153 9.93285C10.2968 9.41653 10.0784 8.90021 9.84007 8.40375C9.70106 8.08601 9.32375 7.96686 9.06559 8.16545C8.54927 8.54276 8.11238 8.9995 7.99323 9.65483C7.85422 10.3697 8.03295 11.0449 8.37054 11.6804C9.12517 13.1102 10.277 14.1627 11.6075 15.0166Z" fill="#31B97B"/>
</svg>
