<svg width="25" height="24" viewBox="0 0 25 24" fill="none" xmlns="http://www.w3.org/2000/svg">
<g id="Icon">
<path id="Vector" d="M12.0332 24C8.9319 24 5.83058 24 2.58829 24C1.88344 24 1.46054 23.7181 1.1786 23.1542C1.1786 23.0132 1.1786 22.8722 1.1786 22.7313C1.1786 18.5022 1.1786 14.1322 1.1786 9.90308C1.1786 9.76212 1.1786 9.62115 0.89666 9.62115C0.473752 9.48018 0.191814 9.19824 0.0508447 8.77533C-0.0901244 8.21145 0.0508447 7.78855 0.614721 7.50661C2.16538 6.51982 3.71604 5.53304 5.2667 4.40529C7.24027 2.99559 9.35481 1.72687 11.3284 0.317181C11.8923 -0.105727 12.3152 -0.105727 13.02 0.317181C16.5442 2.71366 20.0685 4.96916 23.5927 7.36564C24.1566 7.78855 24.4385 8.35242 24.1566 9.05727C24.0156 9.33921 23.7337 9.62115 23.3108 9.62115C23.0288 9.62115 23.0288 9.76212 23.0288 9.90308C23.0288 13.2863 23.0288 16.6696 23.0288 19.9119C23.0288 20.8987 23.0288 21.7445 23.0288 22.7313C23.0288 23.4361 22.6059 23.859 21.9011 24C21.7601 24 21.6191 24 21.4782 24C18.2359 24 15.1345 24 12.0332 24ZM16.8262 11.8767C16.8262 11.7357 16.8262 11.4537 16.6852 11.0308C16.2623 8.9163 14.7116 7.36564 12.4561 7.0837C10.4826 7.0837 8.64996 8.07049 7.66318 10.0441C7.0993 11.3128 7.0993 12.5815 7.52221 13.9912C8.08609 16.2467 9.49578 18.2203 11.0464 19.9119C11.6103 20.6167 12.3152 20.6167 13.02 19.9119C14.0068 18.9251 14.8526 17.7974 15.4165 16.6696C16.2623 15.2599 16.8262 13.7093 16.8262 11.8767Z" fill="#31B97B"/>
<path id="Vector_2" d="M9.63672 12.0156C9.63672 10.7469 10.7645 9.61914 12.0332 9.61914C13.3019 9.61914 14.4297 10.7469 14.4297 12.0156C14.4297 13.2843 13.3019 14.4121 12.0332 14.4121C10.7645 14.4121 9.63672 13.2843 9.63672 12.0156Z" fill="#31B97B"/>
</g>
</svg>
