<svg width="48" height="56" viewBox="0 0 48 56" fill="none" xmlns="http://www.w3.org/2000/svg">
<g id="Group">
<path id="Vector" d="M32.8419 16.8017C34.7667 18.9775 35.6088 21.6368 35.6088 24.5379C35.6088 29.7357 35.7291 34.9335 35.7291 40.2522C35.7291 40.7357 35.7291 41.2192 35.6088 41.8236C35.2479 43.8786 33.4434 44.3621 32.1201 44.1203C31.3983 43.9995 31.3983 43.9995 31.3983 44.7247C31.3983 47.7467 31.3983 50.7687 31.3983 53.7907C31.3983 54.1533 31.3983 54.5159 31.0374 54.7577C30.7968 54.9995 30.4359 55.1203 30.1953 54.9995C29.8344 54.8786 29.5938 54.6368 29.5938 54.2742C29.5938 54.0324 29.5938 53.9115 29.5938 53.6698C29.5938 49.6808 29.5938 45.5709 29.5938 41.5819C29.5938 41.0984 29.4735 40.9775 28.9923 40.9775C25.6238 40.9775 22.2554 40.9775 18.7667 40.9775C18.4058 40.9775 18.2855 41.0984 18.2855 41.461C18.4058 42.6698 17.9246 43.7577 16.9622 44.483C16.7216 44.7247 16.7216 44.8456 16.7216 45.0874C16.7216 47.9885 16.7216 51.0104 16.7216 53.9115C16.7216 54.2742 16.6013 54.6368 16.2404 54.8786C15.6389 55.2412 14.9171 54.7577 14.9171 53.9115C14.9171 51.1313 14.9171 48.3511 14.9171 45.6918C14.9171 45.2082 14.7968 45.0874 14.3156 44.9665C12.7517 44.7247 11.7892 43.5159 11.6689 41.9445C11.6689 41.7028 11.6689 41.5819 11.6689 41.3401C11.6689 35.1753 11.6689 29.0104 11.6689 22.8456C11.6689 20.3071 12.3908 18.1313 13.9547 16.1973C14.9171 15.1093 15.9998 14.2632 17.0825 13.417C17.5637 13.0544 18.1652 12.6918 18.4058 12.2083C18.7667 11.7247 18.2855 11.1203 18.1652 10.5159C17.5637 5.80166 20.8118 1.20825 25.5035 0.241215C30.3156 -0.725818 35.2479 2.41704 36.3306 7.2522C37.293 11.1203 35.9697 14.2632 32.8419 16.8017ZM29.5938 31.0654C29.5938 28.6478 29.5938 26.1093 29.5938 23.6918C29.5938 22.9665 29.9547 22.6039 30.5562 22.6039C31.1577 22.6039 31.3983 22.9665 31.5186 23.6918C31.5186 25.2632 31.5186 26.7137 31.5186 28.2852C31.5186 30.5819 31.5186 32.8786 31.5186 35.1753C31.5186 35.5379 31.6389 35.6588 31.9998 35.6588C32.6013 35.6588 33.0825 35.6588 33.684 35.6588C33.9246 35.6588 34.1652 35.6588 34.0449 35.2962C34.0449 31.5489 34.0449 27.8017 33.9246 24.0544C33.9246 21.8786 33.2028 19.9445 31.7592 18.2522C31.5186 17.8896 31.278 17.8896 30.9171 18.0104C29.2329 18.6148 27.5486 18.8566 25.7441 18.494C23.2178 17.8896 21.1727 16.5599 19.7291 14.3841C19.6088 14.1423 19.4885 14.0214 19.1276 14.2632C18.2855 15.1093 17.3231 15.8346 16.481 16.5599C14.7968 18.0104 13.7141 19.8236 13.7141 21.9995C13.5938 26.472 13.7141 30.9445 13.7141 35.417C13.7141 35.7797 13.8344 35.7797 14.075 35.7797C14.6765 35.7797 15.3983 35.7797 15.9998 35.7797C16.481 35.7797 16.6013 35.6588 16.6013 35.1753C16.6013 31.7907 16.6013 28.4061 16.6013 25.0214C16.6013 24.7797 16.6013 24.6588 16.6013 24.417C16.6013 23.9335 16.9622 23.6918 17.3231 23.6918C17.684 23.5709 18.0449 23.8126 18.2855 24.1753C18.4058 24.417 18.4058 24.6588 18.4058 24.9006C18.4058 29.494 18.4058 34.0874 18.4058 38.6808C18.4058 39.1643 18.5261 39.1643 19.0073 39.1643C22.3757 39.1643 25.7441 39.1643 29.1126 39.1643C29.5938 39.1643 29.7141 39.0434 29.7141 38.5599C29.5938 36.0214 29.5938 33.483 29.5938 31.0654ZM20.09 9.30715C20.09 13.417 23.3381 16.6808 27.4283 16.8017C31.3983 16.8017 34.887 13.417 34.887 9.42803C34.887 5.31814 31.5186 1.93352 27.4283 1.93352C23.4584 1.81264 20.09 5.19726 20.09 9.30715ZM13.5938 39.7687C13.5938 40.3731 13.5938 40.9775 13.5938 41.461C13.4735 42.428 14.075 43.0324 15.0374 43.1533C15.8795 43.1533 16.481 42.5489 16.481 41.461C16.481 40.2522 16.481 39.0434 16.481 37.8346C16.481 37.5929 16.481 37.3511 16.1201 37.3511C15.3983 37.3511 14.6765 37.3511 13.9547 37.3511C13.7141 37.3511 13.5938 37.472 13.5938 37.7137C13.5938 38.439 13.5938 39.0434 13.5938 39.7687ZM33.9246 39.2852C33.9246 38.8017 33.9246 38.3181 33.9246 37.7137C33.9246 37.3511 33.8043 37.3511 33.5637 37.3511C32.9622 37.3511 32.3607 37.3511 31.7592 37.3511C31.5186 37.3511 31.3983 37.472 31.3983 37.7137C31.3983 38.6808 31.3983 39.5269 31.3983 40.494C31.3983 40.9775 31.5186 41.3401 31.7592 41.7028C32.1201 42.1863 32.7216 42.1863 33.2028 42.0654C33.684 41.9445 33.8043 41.5819 33.8043 41.2192C34.0449 40.6148 33.9246 40.0104 33.9246 39.2852Z" fill="#53B9F1"/>
<path id="Vector_2" d="M23.6992 49.5591C23.6992 51.0097 23.6992 52.3393 23.6992 53.7899C23.6992 54.5152 23.3383 54.8778 22.8571 54.9987C22.2556 55.1196 21.7744 54.6361 21.7744 53.9108C21.7744 51.735 21.7744 49.5591 21.7744 47.2624C21.7744 46.658 21.7744 46.1745 21.7744 45.5701C21.7744 44.724 22.1353 44.3613 22.7368 44.3613C23.3383 44.3613 23.6992 44.724 23.6992 45.5701C23.6992 46.8998 23.6992 48.2295 23.6992 49.5591Z" fill="#53B9F1"/>
<path id="Vector_3" d="M9.38331 13.0535C9.38331 14.0205 9.38331 14.9875 9.38331 15.8337C9.38331 16.559 9.02241 17.0425 8.4209 16.9216C7.8194 16.9216 7.4585 16.559 7.4585 15.8337C7.4585 13.8996 7.4585 12.0864 7.4585 10.1524C7.4585 9.42709 7.8194 9.06445 8.4209 9.06445C9.02241 9.06445 9.38331 9.42709 9.38331 10.1524C9.38331 11.1194 9.38331 12.0864 9.38331 13.0535Z" fill="#53B9F1"/>
<path id="Vector_4" d="M6.61671 41.0984C6.61671 42.0654 6.61671 43.0325 6.61671 43.8786C6.61671 44.6039 6.2558 44.9665 5.6543 44.9665C5.0528 44.9665 4.69189 44.6039 4.69189 43.8786C4.69189 41.9445 4.69189 40.1314 4.69189 38.1973C4.69189 37.472 5.0528 37.1094 5.6543 37.1094C6.2558 37.1094 6.61671 37.472 6.61671 38.1973C6.61671 39.1643 6.61671 40.1314 6.61671 41.0984Z" fill="#53B9F1"/>
<path id="Vector_5" d="M47.9998 28.8896C47.9998 29.8566 47.9998 30.8237 47.9998 31.7907C47.9998 32.3951 47.6389 32.8786 47.0374 32.8786C46.5562 32.8786 46.1953 32.516 46.1953 31.9116C46.1953 29.9775 46.1953 27.9226 46.1953 25.9885C46.1953 25.3841 46.5562 25.0215 47.1577 25.0215C47.6389 25.0215 47.9998 25.3841 47.9998 25.9885C47.9998 26.9555 47.9998 27.9226 47.9998 28.8896Z" fill="#53B9F1"/>
<path id="Vector_6" d="M41.5037 19.7019C41.5037 20.6689 41.5037 21.636 41.5037 22.603C41.5037 23.2074 41.1428 23.6909 40.5413 23.6909C40.0601 23.6909 39.6992 23.3283 39.6992 22.603C39.6992 20.6689 39.6992 18.7349 39.6992 16.8008C39.6992 16.1964 40.0601 15.7129 40.6616 15.7129C41.2631 15.7129 41.5037 16.0755 41.624 16.8008C41.5037 17.7678 41.5037 18.7349 41.5037 19.7019Z" fill="#53B9F1"/>
<path id="Vector_7" d="M0 25.7468C0 24.7798 0 23.8128 0 22.8457C0 22.1204 0.360902 21.7578 0.842105 21.7578C1.32331 21.7578 1.80451 22.1204 1.80451 22.7248C1.80451 24.6589 1.80451 26.7139 1.80451 28.6479C1.80451 29.2523 1.44361 29.615 0.962406 29.615C0.481203 29.615 0.120301 29.2523 0.120301 28.6479C0 27.6809 0 26.7139 0 25.7468Z" fill="#53B9F1"/>
<path id="Vector_8" d="M41.0228 42.6707C41.0228 43.6377 41.0228 44.4838 41.0228 45.4509C41.0228 46.1761 40.6619 46.5388 40.1807 46.5388C39.5792 46.5388 39.2183 46.1761 39.2183 45.4509C39.2183 43.5168 39.2183 41.7036 39.2183 39.7696C39.2183 39.0443 39.5792 38.6816 40.1807 38.6816C40.7822 38.6816 41.1431 39.0443 41.1431 39.7696C41.0228 40.6157 41.0228 41.7036 41.0228 42.6707Z" fill="#53B9F1"/>
</g>
</svg>
