<svg width="53" height="52" viewBox="0 0 53 52" fill="none" xmlns="http://www.w3.org/2000/svg">
<g id="Group">
<path id="Vector" d="M52 25.6918C52 36.4896 45.4286 46.1508 35.1428 50.129C31.4286 51.5497 27.7143 52.118 23.7143 51.8339C17.1428 50.9814 11.4286 48.1399 6.85712 43.3093C3.42855 39.6153 1.42855 35.353 0.57141 30.5224C-0.285733 26.8284 -1.87829e-05 23.1344 0.857124 19.4404C0.857124 19.1563 0.857124 18.8721 0.857124 18.8721C-0.857162 16.5989 0.285695 13.7574 2.85712 13.1891C3.14284 13.1891 3.42855 12.9049 3.42855 12.6208C7.42855 6.36941 12.8571 2.10711 20 0.686347C28 -1.01857 35.4286 0.402194 42 5.51695C47.1428 9.49509 50.2857 14.894 51.7143 21.4295C51.7143 21.7137 51.7143 21.9978 51.7143 22.282C52 23.4186 52.2857 24.5552 52 25.6918ZM21.7143 21.7137C20.5714 20.8612 20 20.0088 20.2857 18.588C20.2857 18.3038 20.2857 18.0197 20 17.7355C17.7143 15.4623 15.4286 13.1891 13.1428 10.9159C12.2857 10.0634 12.2857 10.0634 11.4286 10.9159C11.1428 11.2 11.1428 11.2 11.4286 11.2C12.5714 11.7683 13.1428 12.9049 13.4286 14.0415C13.4286 14.6098 13.7143 14.894 14.2857 14.894C15.7143 14.894 16.8571 16.0306 16.8571 17.4514C16.8571 18.8721 15.7143 20.0088 14.2857 20.0088C13.7143 20.0088 13.4286 20.0088 12.8571 20.0088C12 20.0088 11.7143 20.2929 11.7143 21.1454C11.7143 21.4295 11.7143 21.7137 11.7143 21.9978C11.7143 23.4186 11.7143 23.4186 10.2857 23.4186C9.99998 23.4186 9.99998 23.4186 9.99998 23.1344C9.99998 22.282 9.99998 21.7137 9.99998 20.8612C9.99998 19.4404 11.1428 18.3038 12.5714 18.3038C13.1428 18.3038 13.7143 18.3038 14.2857 18.3038C14.8571 18.3038 15.1428 18.0197 15.1428 17.4514C15.1428 16.8831 14.8571 16.5989 14.2857 16.5989C14 16.5989 13.7143 16.5989 13.4286 16.5989C12.8571 16.5989 12.2857 16.8831 12 16.5989C11.7143 16.3148 12 15.7465 12 15.1782C11.7143 14.0415 11.4286 13.1891 10.5714 12.6208C9.99998 12.3366 9.42855 12.3366 8.85712 12.3366C7.71427 12.3366 7.71427 12.3366 7.71427 11.2C7.71427 10.6317 7.99998 10.6317 8.2857 10.6317C8.85712 10.6317 9.42855 10.3475 9.99998 10.0634C15.4286 4.66449 22.2857 2.39126 30 3.52788C35.7143 4.38034 40.5714 7.22187 44 11.7683C48.2857 17.1672 49.7143 23.4186 48.2857 30.2383C47.4286 35.353 44.8571 39.6153 40.8571 42.741C34.8571 47.8557 28 49.2765 20.2857 47.5716C15.7143 46.435 11.7143 43.8776 8.85712 40.4678C5.42855 36.4896 3.71427 31.659 3.42855 26.5443C3.42855 26.2601 3.42855 25.976 3.14284 25.6918C2.2857 24.5552 2.2857 22.8503 3.42855 21.9978C4.2857 21.7137 4.85712 21.7137 5.71427 21.7137C6.2857 21.7137 6.85712 21.4295 6.85712 20.8612C6.85712 20.2929 6.57141 20.0088 5.71427 20.0088C4.85712 20.0088 3.99998 20.0088 3.14284 20.0088C2.57141 20.0088 2.57141 20.0088 2.57141 20.2929C1.71427 24.5552 1.71427 28.8175 3.14284 32.7956C6.85712 45.0142 19.4286 52.118 31.7143 49.2765C44.5714 46.435 52.8571 33.9322 50.2857 21.1454C49.1428 15.1782 46.2857 10.3475 41.4286 6.65356C35.7143 2.10711 29.4286 0.686347 22.2857 1.53881C16.2857 2.67542 11.7143 5.51695 7.71427 9.77924C6.85712 10.9159 5.99998 12.0525 5.14284 13.1891C5.71427 12.9049 5.99998 13.4732 5.71427 13.7574C5.71427 14.0415 5.71427 14.0415 5.71427 14.3257C5.71427 14.6098 5.71427 14.6098 5.42855 14.6098C4.85712 14.6098 3.99998 14.6098 3.42855 14.6098C2.2857 14.6098 1.71427 15.4623 1.71427 16.3148C1.71427 17.1672 2.57141 18.0197 3.42855 18.0197C4.2857 18.0197 5.14284 18.0197 5.71427 18.0197C7.14284 18.0197 8.2857 19.1563 8.2857 20.5771C8.2857 21.9978 7.14284 23.1344 5.71427 23.1344C5.42855 23.1344 5.14284 23.1344 4.85712 23.1344C4.57141 23.1344 4.2857 23.4186 3.99998 23.4186C3.71427 23.9869 3.99998 24.5552 4.85712 24.5552C6.2857 24.5552 7.71427 24.5552 9.42855 24.5552C10.5714 24.5552 10.5714 24.5552 10.5714 25.6918C10.5714 25.976 10.5714 26.2601 9.99998 26.2601C8.2857 26.2601 6.57141 26.2601 5.14284 26.2601C4.85712 26.2601 4.57141 26.2601 4.57141 26.8284C4.57141 27.3967 4.57141 28.2492 4.85712 28.8175C5.99998 35.6372 9.71427 40.7519 16 44.1618C17.1428 44.7301 17.7143 45.0142 18.5714 45.2984C18.5714 43.5935 18.5714 42.1727 18.5714 40.4678C18.5714 39.6153 18.5714 39.047 18.8571 38.1945C19.7143 34.5006 21.7143 31.659 25.1428 29.67C25.4286 29.3858 25.4286 29.3858 25.4286 29.1017C25.4286 28.5333 25.4286 27.6809 25.4286 27.1126C25.4286 26.5443 25.4286 26.5443 24.8571 26.5443C21.4286 26.5443 18 26.5443 14.5714 26.5443C14 26.5443 13.7143 26.2601 13.1428 25.976C12.2857 25.4077 12.2857 22.8503 13.1428 22.282C13.4286 21.7137 13.7143 21.7137 14.2857 21.7137C16.8571 21.7137 19.4286 21.7137 21.7143 21.7137ZM20.8571 16.0306C21.1428 15.4623 21.1428 14.6098 21.4286 14.0415C21.4286 13.7574 21.4286 13.4732 21.1428 13.4732C20 12.9049 19.1428 11.2 19.4286 9.77924C19.7143 8.35848 20.8571 6.93771 22.2857 6.65356C24.2857 6.36941 26.2857 6.36941 28.2857 6.65356C32.8571 7.50602 35.7143 10.3475 36.5714 14.6098C37.7143 19.1563 36 22.8503 32.5714 25.4077C32 25.6918 31.7143 26.2601 32 26.8284C32 27.1126 32 27.1126 32.2857 27.1126C34.5714 27.6809 36 29.1016 36.8571 31.0907C36.8571 31.3749 36.8571 31.3749 37.1428 31.659C39.1428 33.6481 41.1428 35.6372 42.8571 37.3421C42.8571 37.3421 42.8571 37.3421 43.1428 37.3421C43.1428 37.3421 43.1428 37.0579 43.4286 37.0579C46.5714 32.5115 48 27.3967 47.1428 21.7137C46.2857 15.7465 43.1428 10.9159 37.7143 7.50602C33.1428 4.38034 28 3.52788 22.5714 4.38034C19.4286 4.94864 16.5714 6.08525 14 7.79017C13.7143 8.07432 13.7143 8.07432 14 8.35848C14.5714 8.92678 15.1428 9.49509 15.7143 10.0634C17.4286 12.6208 19.1428 14.3257 20.8571 16.0306ZM28.5714 29.9541C27.7143 30.2383 26.8571 30.5224 26 31.0907C22.5714 33.0798 20.5714 36.2055 20.2857 39.8995C20 41.8885 20.2857 43.5935 20.2857 45.5825C20.2857 45.8667 20.5714 45.8667 20.5714 45.8667C23.1428 46.435 25.7143 46.7191 28.2857 46.435C28.5714 46.435 28.8571 46.435 28.8571 45.8667C28.8571 44.1618 28.8571 42.1727 28.8571 40.4678C28.5714 37.0579 28.5714 33.6481 28.5714 29.9541ZM26.8571 28.5333C27.7143 28.2492 28.5714 27.965 29.7143 27.6809C30 27.6809 30.2857 27.3967 30.2857 26.8284C30.2857 25.1235 30.2857 23.1344 30.2857 21.4295C30.2857 21.1454 30.2857 20.8612 30.5714 20.8612C30.8571 20.5771 31.4286 20.2929 31.7143 19.7246C32 19.4404 32 19.1563 32 18.588C31.7143 18.3038 31.4286 18.0197 31.1428 18.0197H30.8571C30.5714 18.0197 30.5714 18.0197 30.5714 17.7355C30.5714 17.1672 30.5714 16.3148 30.5714 15.7465C30.2857 14.894 29.4286 14.0415 28.5714 14.0415C26.8571 14.0415 25.4286 14.0415 23.7143 14.0415C23.4286 14.0415 23.4286 14.0415 23.1428 14.3257C22.8571 16.0306 22.2857 17.4514 22 19.1563C21.7143 19.7246 22 20.0088 22.5714 20.0088C22.8571 20.0088 22.8571 20.0088 23.1428 20.0088C23.4286 20.0088 23.7143 20.0088 23.4286 20.5771C23.4286 21.4295 23.4286 22.282 23.4286 23.1344C23.4286 24.271 24.2857 25.1235 25.4286 25.1235C25.7143 25.1235 26 25.1235 26.5714 25.1235C26.8571 25.1235 26.8571 25.1235 26.8571 25.4077C26.8571 26.2601 26.8571 27.3967 26.8571 28.5333ZM32 23.9869C34.2857 22.282 35.7143 19.1563 35.4286 16.3148C34.8571 12.6208 32.2857 9.21094 27.7143 8.35848C26.2857 8.07432 24.5714 8.35848 22.8571 8.35848C22.5714 8.35848 22.2857 8.35848 22 8.64263C21.1428 9.21094 20.8571 10.0634 21.1428 10.9159C21.4286 11.7683 22.2857 12.3366 23.1428 12.3366C24.8571 12.3366 26.8571 12.3366 28.5714 12.3366C29.1428 12.3366 30 12.6208 30.5714 12.9049C31.7143 13.7574 32 14.894 32 16.0306C32 16.3148 32 16.5989 32.2857 16.5989C33.7143 17.4514 34.2857 19.4404 32.8571 20.8612C32.5714 21.1454 32.2857 21.4295 32 21.7137C32 21.7137 31.7143 21.9978 31.7143 22.282C32 22.8503 32 23.4186 32 23.9869ZM30.2857 46.1508C32 45.8667 33.4286 45.2984 34.8571 44.7301C35.1428 44.7301 35.1428 44.4459 35.1428 44.1618C35.1428 42.1727 35.1428 40.4678 35.1428 38.4787C35.1428 38.1945 35.1428 38.1945 34.8571 38.1945C33.4286 38.1945 31.7143 38.1945 30.2857 38.1945C30 38.1945 30 38.1945 30 38.4787C30.2857 41.0361 30.2857 43.5934 30.2857 46.1508ZM30.2857 33.0798C30.2857 34.2164 30.2857 35.0689 30.2857 36.2055C30.2857 36.4896 30.2857 36.4896 30.5714 36.4896C32 36.4896 33.4286 36.4896 34.8571 36.4896C35.1428 36.4896 35.1428 36.4896 35.1428 36.2055C35.1428 35.353 35.1428 34.2164 35.1428 33.3639C35.1428 31.0907 33.4286 29.3858 31.1428 29.1017C30.2857 29.1017 30 29.3858 30 30.2383C30.2857 31.0907 30.2857 32.2273 30.2857 33.0798ZM36.8571 34.5006C36.8571 35.9213 36.8571 37.3421 36.8571 38.4787C36.8571 38.7629 36.8571 38.7629 37.1428 38.7629C38 39.6153 38.8571 40.4678 39.7143 41.3202C40.5714 40.7519 41.1428 39.8995 41.7143 39.3312C40.2857 37.9104 38.5714 36.2055 36.8571 34.5006ZM22.2857 24.8394C22.2857 24.5552 22 23.9869 22 23.7027C22 23.4186 21.7143 23.4186 21.4286 23.4186C19.4286 23.4186 17.4286 23.4186 15.4286 23.4186C14.2857 23.1344 14.2857 23.1344 14.2857 24.5552C14.2857 24.8394 14.2857 24.8394 14.8571 24.8394C16.8571 24.8394 18.8571 24.8394 20.8571 24.8394C21.1428 24.8394 21.7143 24.8394 22.2857 24.8394ZM36.8571 43.5935C37.4286 43.3093 37.7143 43.0251 38 42.741C38.2857 42.741 38 42.4568 38 42.4568C37.7143 42.1727 37.1428 41.6044 36.5714 41.0361C36.8571 42.1727 36.8571 42.741 36.8571 43.5935Z" fill="#BC5BC5"/>
<path id="Vector_2" d="M14.0001 38.7638C13.7144 39.048 13.7144 39.048 13.4287 39.3321C12.8573 39.9004 12.8573 39.9004 12.2859 39.3321C10.0001 36.7747 8.28585 33.9332 7.42871 30.8075C7.42871 30.5234 7.42871 30.2392 7.71443 30.2392C8.00014 30.2392 8.57157 29.9551 8.85728 29.9551C9.143 29.9551 9.143 30.5234 9.143 31.0917C10.0001 33.9332 11.4287 36.4906 13.7144 38.4797C13.7144 38.4797 14.0001 38.4797 14.0001 38.7638Z" fill="#BC5BC5"/>
<path id="Vector_3" d="M17.1427 41.0354C16.857 41.3195 16.5713 41.8878 16.2856 42.4562H15.9999C15.7141 42.4562 15.7141 42.172 15.4284 42.172C14.2856 41.3195 14.2856 41.3195 15.1427 40.1829C15.1427 40.1829 15.4284 39.8988 15.4284 40.1829C16.2856 40.1829 16.5713 40.4671 17.1427 41.0354Z" fill="#BC5BC5"/>
</g>
</svg>
