<svg width="54" height="60" viewBox="0 0 54 60" fill="none" xmlns="http://www.w3.org/2000/svg">
<g id="Group">
<path id="Vector" d="M32.5273 0C33.63 0.560736 33.9056 1.40184 34.1813 2.52331C34.4569 3.64478 34.7326 5.04662 35.0082 6.1681C35.2839 6.72883 35.2839 7.0092 35.8352 6.44846C37.2135 5.60736 38.5918 5.04662 39.97 4.20552C40.797 3.64478 41.624 3.92515 42.1753 4.48589C43.0022 5.04662 43.2779 5.60736 43.0022 6.72883C43.0022 7.28957 42.7266 8.13067 42.7266 8.69141C42.4509 9.53251 42.4509 10.654 42.1753 11.4951C42.1753 12.0558 42.1753 12.0558 42.7266 12.0558C43.0022 12.0558 43.0022 12.0558 43.2779 12.0558C43.8292 12.0558 44.1049 12.3362 44.1049 12.8969C44.1049 13.4577 44.1049 13.738 43.5535 13.738C42.4509 14.0184 41.3483 13.738 40.797 12.6166C40.5213 12.0558 40.5213 11.4951 40.5213 10.9344C40.797 9.53251 41.0727 8.13067 41.3483 6.44846C41.3483 6.16809 41.624 5.88773 41.3483 5.60736C41.0727 5.32699 40.797 5.60736 40.5213 5.60736C39.1431 6.16809 37.7648 7.0092 36.6622 7.8503C35.2839 8.69141 33.63 7.8503 33.3543 6.44846C33.0786 5.04662 32.5273 3.64478 32.2517 1.96258C32.2517 1.68221 32.2517 1.40184 31.7004 1.40184C31.4247 1.40184 31.1491 1.68221 31.1491 1.96258C30.3221 3.08405 29.2195 4.20552 28.3925 5.32699C27.5655 7.0092 25.9116 7.0092 24.809 5.60736C23.982 4.48589 23.1551 3.36442 22.0524 2.24294C22.0524 1.96258 21.7768 1.68221 21.5011 1.68221C21.2255 1.68221 21.2255 2.24294 20.9498 2.24294C20.6742 3.64478 20.1228 5.04662 19.8472 6.44846C19.5715 8.41104 18.1933 9.25214 16.5393 8.41104C15.161 7.56993 13.7828 7.0092 12.4045 6.1681C12.1288 6.1681 12.1288 5.88773 11.8532 6.1681C11.5775 6.1681 11.8532 6.44846 11.8532 6.72883C12.1288 8.13067 12.4045 9.53251 12.6801 10.9344C12.9558 13.1773 11.5775 14.2988 10.1992 14.0184C8.54532 14.0184 7.16704 14.0184 5.78876 13.738C5.51311 13.738 5.23745 13.738 4.9618 14.0184C4.68614 14.2988 4.9618 14.5791 5.23745 14.5791C6.06442 15.981 6.89138 17.1024 7.71835 18.5043C8.54532 19.9061 8.26966 21.5883 6.61573 22.1491C5.23745 22.4294 3.58352 22.9902 2.20524 23.5509C1.92959 23.5509 1.65393 23.5509 1.65393 23.8313C1.65393 24.1116 1.92959 24.392 1.92959 24.392C3.30786 25.2331 4.41049 26.0742 5.78876 26.9153C7.44269 28.0368 7.71835 29.4386 6.34007 30.8405C5.23745 31.9619 4.13483 32.8031 3.03221 33.9245C3.03221 34.2049 2.75655 34.2049 2.75655 34.4853C2.75655 34.7656 3.03221 34.7656 3.30786 34.7656C4.9618 35.046 6.34007 35.3264 7.99401 35.6067C9.37228 35.8871 10.4749 37.5693 9.37228 39.2515C9.09663 39.5319 8.82097 39.8122 8.54532 39.5319C8.26966 39.2515 7.99401 38.9711 7.99401 38.6908C7.99401 38.4104 7.99401 38.4104 7.99401 38.13C8.26966 37.5693 7.99401 37.5693 7.4427 37.2889C5.78876 37.0086 4.41049 36.7282 3.03221 36.7282C2.20524 36.7282 1.37828 36.1675 1.10262 35.3264C0.826966 34.4853 1.10262 33.6442 1.65393 32.8031C2.75655 31.6816 3.85917 30.5601 4.9618 29.719C5.51311 29.1583 5.51311 29.1583 4.9618 28.5975C3.58352 27.7564 2.4809 26.9153 1.10262 26.0742C0.551311 25.5135 0 24.9527 0 23.8313C0 22.7098 0.826966 22.1491 1.65393 21.8687C3.03221 21.308 4.41049 20.7472 5.78876 20.4669C6.34007 20.1865 6.61573 19.9061 6.06442 19.3454C5.23745 18.2239 4.41049 16.8221 3.58352 15.7006C3.03221 14.8595 3.03221 14.0184 3.58352 13.1773C4.13483 12.3362 4.9618 12.0558 5.78876 12.0558C7.16704 12.0558 8.54532 12.3362 9.92359 12.3362C10.7506 12.3362 11.0262 12.3362 10.7506 11.4951C10.4749 9.81288 10.1992 8.41104 10.1992 7.0092C9.92359 5.88773 10.1992 5.32699 11.0262 4.76626C11.8532 4.20552 12.6801 4.20552 13.5071 4.48589C14.8854 5.32699 16.2637 5.88773 17.6419 6.72883C18.4689 7.0092 18.4689 7.0092 18.7446 6.1681C18.7446 5.04662 19.0202 3.64478 19.2959 2.52331C19.5715 1.40184 19.8472 0.560736 20.9498 0C21.2255 0 21.7768 0 22.0524 0C22.8794 0.280368 23.4307 1.12147 23.7064 1.68221C24.809 2.80368 25.3603 3.64478 26.1873 4.48589C26.4629 5.04662 26.7386 5.04662 27.0142 4.48589C27.5655 3.64478 28.3925 2.80368 28.9438 1.96258C29.7708 1.40184 30.3221 0.560736 31.1491 0C31.7004 0 31.976 0 32.5273 0Z" fill="#31B97B"/>
<path id="Vector_2" d="M47.9641 12.0547C48.791 12.0547 49.618 12.3351 49.8937 13.1762C50.445 14.0173 50.1693 14.578 49.8937 15.4191C49.0667 16.8209 48.2397 17.9424 47.4128 19.3443C46.8615 19.905 46.8615 20.1854 47.6884 20.4657C49.0667 21.0265 50.445 21.5872 51.8232 21.8676C52.6502 22.1479 53.4772 22.7087 53.4772 23.8301C53.4772 24.6712 53.2015 25.5124 52.3746 26.0731C51.2719 26.9142 49.8937 27.7553 48.791 28.316C48.2397 28.8768 48.2397 28.8768 48.5154 29.4375C49.618 30.559 50.445 31.4001 51.5476 32.5216C52.3746 33.0823 52.6502 33.9234 52.3746 35.0449C52.0989 36.1663 51.2719 36.4467 50.445 36.7271C49.0667 37.0074 47.4128 37.2878 46.0345 37.2878C45.4832 37.2878 45.4832 37.5682 45.4832 38.1289C46.0345 39.5308 46.5858 40.9326 47.1371 42.6148C47.9641 44.297 46.5858 45.9792 44.9319 45.6988C44.1049 45.4185 43.0023 45.1381 42.1753 44.8577C41.3483 44.5774 40.797 44.5774 39.9701 44.297C39.4188 44.0166 39.1431 44.297 39.1431 44.8577C39.1431 46.2596 38.8674 47.9418 38.8674 49.3436C38.8674 50.4651 38.5918 51.0258 37.4892 51.5866C36.6622 51.8669 35.8352 51.8669 35.0083 51.0258C33.9057 50.1847 33.0787 49.3436 31.9761 48.5025C31.4248 47.9418 31.1491 47.9418 30.8734 48.7829C30.5978 49.3436 30.5978 49.9044 30.3221 50.7455C30.0465 51.3062 29.7708 51.5866 29.2195 51.5866C28.6682 51.5866 28.3925 51.0258 28.6682 50.4651C28.9439 49.624 28.9439 49.0633 29.2195 48.2222C29.7708 46.54 31.4248 45.9792 32.803 47.1007C33.9057 47.9418 35.0083 48.7829 36.1109 49.9044C36.3866 50.1847 36.3866 50.4651 36.6622 50.1847C36.9379 49.9044 36.9379 49.624 36.9379 49.3436C36.9379 47.9418 36.9379 46.54 37.2135 45.1381C37.2135 43.1755 38.5918 42.3344 40.2457 42.8952C41.624 43.1755 43.0023 43.7363 44.3806 44.0166C44.6562 44.0166 44.9319 44.297 45.2075 44.0166C45.4832 43.7363 45.2075 43.4559 45.2075 43.1755C44.6562 41.7737 44.1049 40.3719 43.5536 38.97C43.0023 37.5682 43.8292 36.1663 45.2075 35.886C46.5858 35.6056 48.2397 35.3252 49.618 35.3252C49.8937 35.3252 50.1693 35.3252 50.1693 35.0449C50.1693 34.7645 50.1693 34.4841 49.8937 34.4841C48.791 33.3627 47.9641 32.5215 46.8615 31.4001C45.4832 29.9982 45.7588 28.5964 47.4128 27.4749C48.5154 26.6338 49.8937 25.7927 50.9963 25.232C51.2719 25.232 51.5476 24.9516 51.5476 24.6712C51.5476 24.3909 51.2719 24.3909 50.9963 24.1105C49.618 22.989 48.2397 22.4283 46.8615 22.1479C45.2075 21.5872 44.6562 19.905 45.7588 18.5032C46.5858 17.1013 47.4128 15.9798 48.2397 14.578C48.2397 14.2976 48.5154 14.2976 48.2397 14.0173C48.2397 13.7369 47.9641 13.7369 47.6884 13.7369C46.8615 13.7369 46.5858 13.4565 46.5858 12.8958C46.5858 12.3351 47.1371 12.0547 47.9641 12.0547Z" fill="#31B97B"/>
<path id="Vector_3" d="M26.7386 59.9993C25.6359 59.9993 24.809 59.4386 24.5333 58.0368C23.982 55.7938 23.4307 53.5509 22.8794 51.3079C22.6037 50.4668 22.6037 49.6257 22.3281 48.7846C22.0524 48.2239 21.7768 47.9435 21.5011 48.5042C20.3985 49.3453 19.5715 50.1864 18.4689 51.0276C17.6419 51.5883 16.815 51.8687 15.988 51.5883C14.8854 51.0275 14.6097 50.1864 14.6097 49.3453C14.6097 47.9435 14.6097 46.2613 14.3341 44.8595C14.3341 44.2987 14.0584 44.0184 13.5071 44.2987C11.8532 44.8595 10.4749 45.1398 8.82096 45.7006C7.71834 45.9809 6.89137 45.7006 6.34006 44.5791C5.78875 43.4576 6.06441 42.6165 6.61572 41.7754C6.89137 41.495 7.16703 41.2147 7.71834 41.495C8.26965 42.0558 8.26965 42.3361 8.26965 42.8969C8.26965 43.1772 7.71834 43.4576 8.26965 44.0183C8.54531 44.2987 9.09662 44.0183 9.37227 44.0183C10.7505 43.738 12.1288 43.1772 13.5071 42.8969C15.161 42.3361 16.2637 43.4576 16.5393 45.1398C16.5393 46.5417 16.5393 47.9435 16.5393 49.3453C16.5393 49.6257 16.5393 49.6257 16.5393 49.9061C16.5393 50.4668 16.815 50.7472 17.3663 50.1864C18.4689 49.3453 19.5715 48.5042 20.6741 47.3828C22.3281 45.9809 23.982 46.822 24.5333 48.7846C25.3603 51.8687 25.9116 54.9527 26.7386 58.0368C26.7386 58.3171 26.7386 58.5975 27.2899 58.5975C27.5655 58.5975 27.8412 58.3171 27.8412 58.0368C28.1168 57.1956 28.3925 56.0742 28.6681 55.2331C28.9438 54.6723 29.2195 54.1116 29.7708 54.392C30.3221 54.392 30.5977 54.9527 30.3221 55.7938C30.0464 56.9153 29.7708 57.7564 29.4951 58.8779C28.6681 59.4386 27.8412 59.9993 26.7386 59.9993Z" fill="#31B97B"/>
<path id="Vector_4" d="M14.6093 33.0861C14.3336 32.8058 14.6093 32.8058 14.6093 33.0861C12.9553 32.8058 12.9553 32.8058 12.6797 34.488C12.6797 34.7683 12.404 35.3291 12.404 35.6094C12.404 36.1702 11.8527 36.4505 11.3014 36.4505C10.7501 36.4505 10.4744 35.8898 10.7501 35.6094C10.7501 34.488 11.0257 33.6469 11.0257 33.0861C10.7501 33.0861 10.7501 33.0861 10.4744 33.0861C9.92312 33.0861 9.64746 32.8058 9.64746 32.245C9.64746 31.6843 9.92312 31.4039 10.4744 31.4039C10.7501 31.4039 11.3014 31.6843 11.3014 31.1236C11.577 30.8432 11.577 30.5628 11.577 30.0021C11.577 29.7217 11.577 29.4413 11.8527 29.161C11.577 29.161 11.577 29.161 11.3014 29.161C10.7501 29.161 10.4744 28.6002 10.4744 28.3199C10.4744 27.7591 10.7501 27.4788 11.3014 27.4788C11.577 27.4788 12.1284 27.7591 12.404 27.1984C12.6797 26.918 12.6797 26.6377 12.6797 26.0769C12.6797 25.5162 12.9553 24.9555 12.9553 24.6751C12.9553 24.1144 13.5066 23.834 13.7823 23.834C14.3336 23.834 14.6093 24.3947 14.3336 24.9555C14.3336 25.5162 14.0579 26.0769 14.0579 26.6377C14.0579 26.918 14.0579 26.918 14.3336 26.918C15.7119 26.918 15.7119 26.918 15.9875 25.7966C15.9875 25.2358 16.2632 24.9555 16.2632 24.3947C16.5388 24.1144 16.8145 23.834 17.3658 23.834C17.9171 23.834 18.1928 24.3947 17.9171 24.9555C17.9171 25.5162 17.6415 26.0769 17.6415 26.6377C17.6415 26.918 17.6415 27.1984 17.9171 27.1984C18.4684 27.1984 18.7441 27.4788 18.7441 28.0395C18.7441 28.6002 18.4684 28.8806 17.9171 28.8806C17.3658 28.8806 17.0902 29.161 17.0902 29.7217C17.0902 30.0021 17.0902 30.0021 17.0902 30.2824C17.0902 30.8432 16.8145 31.1236 17.6415 31.1236C18.1928 31.1236 18.4684 31.6843 18.1928 31.9647C18.1928 32.5254 17.6415 32.8058 17.3658 32.8058C16.5388 32.8058 16.5388 33.0861 16.2632 33.9272C16.2632 34.488 15.9875 35.0487 15.9875 35.6094C15.9875 36.1702 15.4362 36.4505 14.8849 36.4505C14.3336 36.4505 14.0579 35.8898 14.3336 35.3291C14.3336 34.488 14.3336 33.6469 14.6093 33.0861ZM15.4362 28.8806C15.1606 28.8806 14.8849 28.8806 14.8849 28.8806C14.0579 28.8806 14.0579 28.8806 13.7823 29.7217C13.5066 30.8432 13.5066 30.8432 14.8849 30.8432C15.1606 30.8432 15.4362 30.8432 15.4362 30.2824C15.1606 30.0021 15.1606 29.4413 15.4362 28.8806Z" fill="#31B97B"/>
<path id="Vector_5" d="M17.9179 16.5404C17.9179 16.26 17.9179 16.26 17.9179 16.5404C18.1936 15.1386 17.6423 14.8582 16.8153 14.5778C16.264 14.2975 15.9883 14.0171 15.7127 14.0171C15.1614 13.7367 14.8857 13.176 15.1614 12.6152C15.437 12.3349 15.9883 12.0545 16.5396 12.3349C19.2962 14.0171 22.3284 15.6993 25.085 17.1011C25.6363 17.3815 25.6363 17.9422 25.3606 18.503C24.5336 20.1852 22.8797 20.7459 21.2258 20.4656C19.8475 20.1852 18.4692 18.7833 18.1936 17.3815C17.9179 17.1011 17.9179 16.8208 17.9179 16.5404ZM19.5718 16.26C19.5718 17.1011 19.8475 17.9422 20.6745 18.503C21.5014 19.0637 22.3284 19.0637 23.1554 18.503C23.1554 18.503 23.431 18.503 23.431 18.2226C23.431 17.9422 23.1554 17.9422 23.1554 17.9422C22.3284 17.6619 21.7771 17.3815 21.2258 17.1011C20.6745 16.8208 20.1232 16.5404 19.5718 16.26Z" fill="#31B97B"/>
<path id="Vector_6" d="M31.4245 20.4652C30.0462 20.4652 28.9436 19.6241 28.1166 18.5026C27.841 17.9419 27.841 17.3812 28.3923 17.1008C31.1488 15.4186 34.181 13.7364 36.9376 12.3346C37.4889 12.0542 38.0402 12.0542 38.3159 12.6149C38.5915 13.1757 38.3159 13.456 37.7645 13.7364C37.2132 14.0168 36.3863 14.5775 35.835 14.8579C35.5593 15.1382 35.5593 15.1382 35.5593 15.4186C35.835 18.2223 33.9054 20.4652 31.4245 20.4652ZM30.0462 18.2223C30.8732 18.783 31.9758 18.783 32.8028 18.2223C33.6297 17.6615 33.9054 16.8204 33.6297 15.9793C32.5271 16.8204 31.1488 17.6615 30.0462 18.2223Z" fill="#31B97B"/>
<path id="Vector_7" d="M30.0459 32.5207C30.0459 34.4833 28.392 35.8851 26.4624 35.8851C24.5328 35.8851 23.1546 34.4833 22.8789 32.5207C22.8789 31.96 23.1546 31.3993 23.7059 31.3993C24.2572 31.3993 24.5328 31.6796 24.8085 32.2404C24.8085 33.3618 25.6355 33.9226 26.7381 33.9226C27.565 33.9226 28.392 33.0815 28.392 32.2404C28.392 31.1189 27.8407 30.5582 26.7381 30.2778C25.9111 30.2778 25.9111 29.9974 25.6355 29.1563C25.6355 28.5956 25.6355 27.7545 25.6355 27.1937C25.6355 26.633 25.9111 26.0723 26.4624 26.0723C27.0137 26.0723 27.2894 26.3526 27.2894 27.1937C27.2894 28.0348 27.2894 28.5956 28.392 29.1563C29.7703 29.9974 30.3216 31.3993 30.0459 32.5207Z" fill="#31B97B"/>
<path id="Vector_8" d="M20.1226 28.6002C20.1226 27.4788 20.1226 26.3573 20.1226 24.9555C20.1226 24.1144 20.3982 23.834 20.9495 23.834C21.5008 23.834 22.0521 24.1144 22.0521 24.9555C22.0521 27.1984 22.0521 29.7217 22.0521 31.9647C22.0521 32.8058 21.7765 33.0861 21.2252 33.0861C20.6739 33.0861 20.3982 32.8058 20.3982 31.9647C20.1226 30.8432 20.1226 29.7217 20.1226 28.6002Z" fill="#31B97B"/>
<path id="Vector_9" d="M35.2841 30.0005C35.2841 30.5612 35.0085 31.1219 34.7328 31.6827C34.1815 32.2434 33.6302 32.8042 33.0789 33.3649C32.5276 33.9256 32.2519 33.9256 31.7006 33.3649C31.4249 33.0845 31.4249 32.5238 31.7006 31.963C32.2519 31.4023 32.5276 31.1219 33.0789 30.5612C33.3545 30.2808 33.3545 29.7201 33.0789 29.4397C32.5276 28.879 32.2519 28.5986 31.7006 28.0379C31.1493 27.4772 31.1493 27.1968 31.7006 26.6361C31.9762 26.3557 32.5276 26.3557 33.0789 26.6361C33.6302 27.1968 34.1815 27.7575 34.7328 28.3183C35.0085 28.5986 35.2841 29.1594 35.2841 30.0005Z" fill="#31B97B"/>
<path id="Vector_10" d="M37.4884 27.4755C36.9371 27.4755 36.3858 27.1951 35.8345 26.9148C35.2832 26.354 34.7319 25.7933 34.1806 25.2325C33.6293 24.6718 33.6293 24.3914 34.1806 23.8307C34.4562 23.5503 35.0075 23.5503 35.5588 23.8307C36.1102 24.3914 36.3858 24.6718 36.9371 25.2325C37.4884 25.7933 37.4884 25.7933 38.0397 25.2325C38.5911 24.6718 38.8667 24.3914 39.418 23.8307C39.9693 23.27 40.5206 23.27 40.7963 23.8307C41.072 24.1111 41.072 24.6718 40.7963 25.2325C40.245 25.7933 39.6937 26.354 39.1424 26.9148C38.5911 27.1951 38.0398 27.4755 37.4884 27.4755Z" fill="#31B97B"/>
<path id="Vector_11" d="M39.9702 29.9979C39.9702 29.4371 40.2459 28.8764 40.5215 28.3157C41.0728 27.7549 41.6241 27.1942 42.1755 26.6334C42.7268 26.0727 43.0024 26.0727 43.5537 26.6334C43.8294 26.9138 43.8294 27.4745 43.5537 28.0353C43.0024 28.596 42.4511 29.1568 42.1755 29.4371C41.8998 29.7175 41.8998 29.9979 42.1755 30.2782C42.7268 30.839 43.0024 31.1193 43.5537 31.6801C44.105 32.2408 44.105 32.8015 43.8294 33.0819C43.5537 33.3623 43.0024 33.3623 42.4511 33.0819C41.8998 32.5212 41.3485 31.9604 41.0728 31.6801C40.2459 31.1193 39.9702 30.5586 39.9702 29.9979Z" fill="#31B97B"/>
<path id="Vector_12" d="M37.4897 32.2402C38.041 32.2402 38.5923 32.5206 39.1436 32.801C39.6949 33.3617 40.2463 33.9224 40.7976 34.4832C41.3489 35.0439 41.3489 35.3243 40.7976 35.885C40.5219 36.1654 39.9706 36.1654 39.4193 35.885C38.868 35.3243 38.5923 35.0439 38.041 34.4832C37.4897 33.9224 37.4897 33.9224 36.9384 34.4832C36.3871 35.0439 36.1114 35.3243 35.5601 35.885C35.0088 36.4458 34.7331 36.4458 34.1818 35.885C33.9062 35.6047 33.9062 35.0439 34.1818 34.4832C34.7331 33.9224 35.2845 33.3617 35.8358 32.801C36.3871 32.5206 36.9384 32.2402 37.4897 32.2402Z" fill="#31B97B"/>
<path id="Vector_13" d="M27.5656 24.3938C27.5656 24.9546 27.2899 25.2349 26.7386 25.2349C26.1873 25.2349 25.9116 24.9546 25.9116 24.3938C25.9116 23.8331 26.1873 23.5527 26.7386 23.5527C27.0142 23.5527 27.5656 24.1135 27.5656 24.3938Z" fill="#31B97B"/>
<path id="Vector_14" d="M20.9495 36.1666C20.3982 36.1666 20.1226 35.8862 20.1226 35.3255C20.1226 34.7647 20.6739 34.4844 20.9495 34.4844C21.5008 34.4844 21.7765 35.0451 21.7765 35.3255C21.7765 35.8862 21.5008 36.1666 20.9495 36.1666Z" fill="#31B97B"/>
</g>
</svg>
