<svg width="44" height="53" viewBox="0 0 44 53" fill="none" xmlns="http://www.w3.org/2000/svg">
<g id="Frame" clip-path="url(#clip0_48_35)">
<g id="Group">
<path id="Vector" d="M-0.000142667 26.477C-0.000142667 19.2937 0.0451248 12.1103 -0.000142667 4.92702C-0.000142667 2.2563 1.76529 0.552563 3.48545 0.138141C3.89286 0.0460469 4.30027 0 4.70768 0C10.9093 0 17.0657 0 23.2673 0C25.5307 0 27.3414 1.4735 27.8394 3.59166C27.9752 4.09818 27.7488 4.5126 27.3414 4.60469C26.934 4.69679 26.5719 4.4205 26.4361 3.96003C26.1192 2.62467 25.2591 1.79583 23.9916 1.5656C23.1315 1.38141 22.2715 1.51955 21.4114 1.51955C21.2303 1.51955 21.185 1.65769 21.1398 1.79583C20.9134 2.39444 20.6871 2.947 20.4155 3.54561C20.0081 4.55864 19.2385 5.11121 18.1521 5.11121C15.4361 5.11121 12.72 5.11121 10.004 5.11121C8.91755 5.11121 8.14801 4.55864 7.69533 3.54561C7.46899 2.947 7.24266 2.39444 7.01632 1.79583C6.97105 1.65769 6.92578 1.4735 6.69945 1.4735C5.83936 1.4735 4.93401 1.38141 4.07393 1.51955C2.53484 1.74978 1.53895 2.99305 1.44842 4.60469C1.44842 4.74283 1.44842 4.88097 1.44842 4.97307C1.44842 19.2937 1.44842 33.6143 1.44842 47.8888C1.44842 49.5465 2.1727 50.6977 3.53072 51.2042C3.89286 51.3423 4.30027 51.3884 4.66241 51.3884C10.8641 51.3884 17.0657 51.3884 23.2673 51.3884C25.1233 51.3884 26.4813 50.053 26.4813 48.119C26.4813 46.5074 26.4813 44.8957 26.4813 43.3301C26.4813 42.7315 26.7529 42.3632 27.1604 42.3632C27.613 42.3632 27.8846 42.7315 27.8846 43.2841C27.8846 44.8957 27.9299 46.5074 27.8846 48.119C27.8394 50.9279 25.8476 52.8619 23.0863 52.8619C17.292 52.8619 11.5431 52.8619 5.74883 52.8619C4.93401 52.8619 4.1192 52.9079 3.30438 52.6777C1.35788 52.1251 -0.0454102 50.4214 -0.0454102 48.3493C-0.000142667 41.9027 -0.000142667 35.318 -0.000142667 28.7333C-0.000142667 27.9965 -0.000142667 27.2137 -0.000142667 26.477ZM19.6459 1.51955C15.8887 1.51955 12.2221 1.51955 8.46488 1.51955C8.64595 2.02606 8.82702 2.48653 9.00809 2.947C9.18916 3.40747 9.50603 3.63771 10.004 3.63771C12.72 3.68375 15.3908 3.68375 18.1069 3.68375C18.5595 3.68375 18.9217 3.45352 19.1027 2.99305C19.2838 2.48653 19.4649 2.02606 19.6459 1.51955Z" fill="#FA8A9D"/>
<path id="Vector_2" d="M27.2056 24.7269C29.469 24.7269 31.7323 24.7269 33.9957 24.7269C35.0369 24.7269 35.8517 25.2334 36.4854 26.0162C40.1521 30.4367 42.7323 35.4097 43.8188 41.0735C44.1356 42.5931 44.0904 44.1126 43.1397 45.448C41.6459 47.6122 38.7941 47.9806 36.8023 46.2768C35.2632 44.9415 33.9052 43.4219 32.8188 41.6721C32.4113 41.0275 31.8681 40.7051 31.0986 40.7051C28.4731 40.7512 25.8476 40.7051 23.222 40.7051C22.543 40.7051 22.0451 40.9354 21.7282 41.534C20.5965 43.3298 19.2385 44.8954 17.6089 46.2308C16.2961 47.3359 14.8023 47.6122 13.2179 46.9675C11.6336 46.3229 10.7735 45.0796 10.5471 43.3298C10.3208 41.6261 10.8188 40.0605 11.2714 38.4949C12.5842 33.7521 14.9834 29.6078 18.1068 25.878C18.8764 24.9571 19.9175 24.6348 21.0492 24.6348C23.0862 24.6808 25.1685 24.6808 27.2056 24.7269ZM27.2509 26.1543C25.1233 26.1543 22.9957 26.1543 20.8681 26.1543C20.1891 26.1543 19.5554 26.3385 19.1027 26.8911C16.4772 30.0683 14.3496 33.5218 13.0821 37.4358C12.4936 39.1856 11.9052 40.9814 11.9504 42.8693C11.9504 44.1126 12.5389 45.0796 13.6706 45.5861C14.8023 46.0926 15.8434 45.8624 16.7488 45.0796C18.1974 43.8363 19.4196 42.4549 20.4155 40.8433C21.1397 39.6921 22.0904 39.2316 23.4031 39.2316C25.9381 39.2316 28.4731 39.2316 31.0081 39.2316C32.3208 39.2316 33.3167 39.7382 34.041 40.8893C35.0369 42.501 36.3044 43.8824 37.7076 45.1256C38.613 45.9084 39.6541 46.0926 40.7406 45.5861C41.827 45.0796 42.4155 44.1587 42.4607 42.9154C42.5513 41.4879 42.0986 40.1065 41.7365 38.7712C40.5142 34.4428 38.3414 30.6669 35.5801 27.2134C34.9463 26.4306 34.2673 26.1083 33.2714 26.1083C31.3249 26.2004 29.2879 26.1543 27.2509 26.1543Z" fill="#FA8A9D"/>
<path id="Vector_3" d="M28.6091 13.8598C27.7943 13.7217 26.9342 13.3533 26.0742 13.1231C25.4857 12.9849 24.8972 12.7547 24.354 12.6166C23.4034 12.3403 23.0412 11.6496 23.3128 10.6826C23.675 9.34724 24.0371 8.05792 24.4445 6.72256C24.7161 5.75558 25.3952 5.3872 26.3458 5.66348C27.6585 6.03186 28.926 6.44628 30.2388 6.81465C31.1894 7.09094 31.5515 7.78164 31.2799 8.74863C30.9178 10.084 30.5104 11.4193 30.103 12.7547C29.8766 13.5375 29.3787 13.9059 28.6091 13.8598ZM26.1194 7.18303C25.8026 7.13698 25.8026 7.32117 25.7573 7.45931C25.4404 8.56444 25.1235 9.66956 24.7614 10.7747C24.6256 11.1431 24.7614 11.2352 25.0783 11.3273C26.1647 11.6496 27.2059 11.9719 28.2923 12.2942C28.6091 12.3863 28.6997 12.2942 28.7902 11.9719C29.1071 10.8668 29.3787 9.76166 29.7408 8.65653C29.8314 8.3342 29.6956 8.24211 29.4692 8.19606C28.5639 7.91978 27.6585 7.68955 26.7532 7.41326C26.5268 7.32117 26.3005 7.22908 26.1194 7.18303Z" fill="#FA8A9D"/>
<path id="Vector_4" d="M11.5884 13.3077C11.5884 11.0974 13.3085 9.34766 15.4814 9.34766C17.6542 9.34766 19.4197 11.1435 19.4197 13.3537C19.4197 15.564 17.609 17.3598 15.4361 17.3598C13.3538 17.3138 11.5884 15.5179 11.5884 13.3077ZM17.9711 13.3077C17.9711 11.9263 16.8847 10.8212 15.5719 10.7751C14.2139 10.7751 13.0822 11.9263 13.0822 13.3077C13.0822 14.6891 14.1686 15.7942 15.5267 15.7942C16.8847 15.8403 17.9711 14.7351 17.9711 13.3077Z" fill="#FA8A9D"/>
<path id="Vector_5" d="M36.9833 10.5439C37.617 10.9123 38.1602 10.4979 38.7487 10.0374C39.473 9.43881 40.65 9.99137 40.6952 10.9584C40.7405 11.603 40.9216 11.9714 41.51 12.2477C42.008 12.4319 42.2343 12.8923 42.1891 13.4449C42.1891 13.9975 41.9174 14.4119 41.4195 14.5961C40.7858 14.7803 40.5594 15.1947 40.4689 15.7933C40.4236 16.2998 40.1067 16.6682 39.6088 16.8063C39.1109 16.9445 38.6129 16.8524 38.2508 16.3919C37.8886 15.8854 37.4812 15.7472 36.8928 15.8854C36.3948 16.0235 35.9421 15.7933 35.6253 15.3328C35.3084 14.9184 35.2631 14.4119 35.58 13.9975C35.9874 13.4449 35.9421 12.9844 35.6705 12.3858C35.2179 11.4649 35.8516 10.5439 36.9833 10.5439ZM40.5594 13.3528C39.6993 13.0305 39.2467 12.4779 39.3372 11.3728C38.7035 12.2016 38.0244 12.3858 37.0286 12.0174C37.7528 12.8463 37.5265 13.6291 37.0738 14.4119C38.0244 14.0435 38.6129 14.4579 39.2014 15.1947C39.1561 14.1356 39.6541 13.6291 40.5594 13.3528Z" fill="#FA8A9D"/>
<path id="Vector_6" d="M13.9422 50.0527C11.8146 50.0527 9.64179 50.0527 7.51422 50.0527C6.88047 50.0527 6.47307 49.5923 6.6994 49.0397C6.83521 48.6713 7.15208 48.5332 7.51422 48.5332C8.05743 48.5332 8.60064 48.5332 9.14385 48.5332C12.8105 48.5332 16.4772 48.5332 20.1438 48.5332C20.2797 48.5332 20.4155 48.5332 20.5513 48.5332C21.0945 48.5793 21.4113 48.9016 21.3661 49.316C21.3208 49.7304 21.0039 50.0067 20.506 50.0067C18.2879 50.0527 16.115 50.0527 13.9422 50.0527Z" fill="#FA8A9D"/>
<path id="Vector_7" d="M26.5264 19.017C26.5264 18.0039 26.5264 16.9449 26.5264 15.9318C26.5264 15.3332 26.798 14.9648 27.2506 14.9648C27.7033 14.9648 28.0202 15.3332 28.0202 15.8858C28.0202 18.05 28.0202 20.1681 28.0202 22.3323C28.0202 22.8849 27.7033 23.2072 27.2959 23.2533C26.8432 23.2533 26.5716 22.8849 26.5264 22.3323C26.5264 21.1812 26.5264 20.1221 26.5264 19.017Z" fill="#FA8A9D"/>
<path id="Vector_8" d="M23.4938 22.3332C23.4938 22.8397 23.2222 23.2081 22.8148 23.2081C22.3621 23.2081 22.0905 22.9779 22.0452 22.5174C21.8189 20.6755 20.9588 19.202 19.5555 18.0048C19.465 17.9127 19.3745 17.8667 19.2839 17.7285C19.0576 17.4062 19.0123 17.0839 19.2386 16.8076C19.5103 16.4853 19.8724 16.3932 20.1893 16.6695C22.0452 18.0969 23.1769 19.9848 23.4938 22.3332Z" fill="#FA8A9D"/>
<path id="Vector_9" d="M30.5101 22.2875C30.7364 20.4916 31.506 18.926 32.7735 17.5907C32.9998 17.3144 33.2714 17.0842 33.543 16.8539C34.0409 16.4395 34.4484 16.4395 34.7652 16.8079C35.0368 17.1763 34.9463 17.5907 34.4936 17.9591C33.2714 19.0181 32.4113 20.2614 32.0492 21.8731C32.0039 22.1033 32.0039 22.2875 31.9586 22.5177C31.8681 22.9782 31.506 23.3005 31.1438 23.2084C30.6912 23.1163 30.4648 22.84 30.5101 22.2875Z" fill="#FA8A9D"/>
<path id="Vector_10" d="M31.4609 31.4959C31.1893 30.4829 31.4156 29.654 32.1852 29.1015C32.8642 28.595 33.6337 28.5489 34.4033 28.9633C35.3539 29.5619 35.5802 30.4368 35.3539 31.4959C36.8477 31.2657 37.9794 31.9564 38.1152 33.1996C38.2057 33.9824 37.9794 34.6271 37.3909 35.1336C36.8024 35.6401 36.1234 35.5941 35.3991 35.548C35.4897 36.0546 35.535 36.469 35.3539 36.9294C35.1728 37.3899 34.9465 37.7122 34.5391 37.9885C33.8601 38.449 32.9094 38.449 32.2757 37.9425C31.4609 37.3439 31.2345 36.515 31.5061 35.502C30.465 35.7322 29.5596 35.548 28.9712 34.535C28.5638 33.7983 28.609 33.0155 29.0617 32.3248C29.5596 31.588 30.3292 31.3117 31.4609 31.4959ZM32.6831 34.3048C33.181 34.0285 33.679 34.1666 34.1769 34.2587C33.9959 33.7522 34.0411 33.2457 34.1769 32.7392C33.6337 32.9694 33.1358 32.7852 32.6831 32.8773C32.7736 33.3838 32.8189 33.6601 32.6831 34.3048ZM30.7366 32.9234C30.4197 32.9234 30.1934 33.1075 30.1481 33.4759C30.1029 33.8903 30.3745 34.0745 30.6913 34.1206C31.0535 34.1206 31.2798 33.8903 31.2798 33.522C31.3251 33.1536 31.0987 32.9234 30.7366 32.9234ZM32.8189 36.1927C32.8189 36.6071 33.0452 36.8373 33.4074 36.8373C33.7695 36.8373 33.9959 36.6071 33.9959 36.1927C33.9959 35.8704 33.7695 35.6401 33.4074 35.6401C33.0452 35.6401 32.8642 35.8704 32.8189 36.1927ZM32.8189 30.7592C32.8189 31.1275 33.0452 31.3578 33.3621 31.3578C33.7243 31.3578 33.9959 31.1275 33.9506 30.7592C33.9506 30.3908 33.7243 30.1605 33.3168 30.1605C33 30.2066 32.8642 30.4368 32.8189 30.7592ZM35.535 33.4299C35.535 33.8903 35.7613 34.0745 36.0782 34.1206C36.4403 34.1206 36.7119 33.8903 36.7119 33.522C36.7119 33.1996 36.5308 32.9234 36.1234 32.9234C35.7613 32.9234 35.535 33.1075 35.535 33.4299Z" fill="#FA8A9D"/>
<path id="Vector_11" d="M21.2758 37.6202C20.8684 37.6202 20.5062 37.6202 20.0988 37.6202C19.5104 37.6202 19.284 37.344 19.2388 36.7454C19.2388 36.423 19.2388 36.0546 19.2388 35.7323C19.2388 35.5021 19.1935 35.41 18.9219 35.41C18.605 35.41 18.2429 35.41 17.926 35.41C17.3375 35.41 17.0659 35.1337 17.0659 34.5351C17.0659 33.7523 17.0659 32.9235 17.0659 32.1407C17.0659 31.5881 17.3375 31.3579 17.8355 31.3118C17.8807 31.3118 17.926 31.3118 18.0165 31.3118C18.4239 31.2658 18.9672 31.496 19.1935 31.2197C19.3746 30.9434 19.2388 30.4369 19.284 30.0225C19.284 29.3778 19.5556 29.1016 20.1894 29.1016C20.9589 29.1016 21.6832 29.1016 22.4527 29.1016C23.0412 29.1016 23.2676 29.3318 23.2676 29.9304C23.2676 30.2527 23.3128 30.5751 23.2676 30.8974C23.2223 31.2658 23.3581 31.3579 23.675 31.3118C23.9918 31.2658 24.354 31.3118 24.6709 31.3118C25.1688 31.3579 25.4404 31.6341 25.4404 32.1407C25.4404 32.9235 25.4404 33.7523 25.4404 34.5351C25.4404 35.0416 25.1688 35.3179 24.6256 35.3639C24.2634 35.3639 23.856 35.3639 23.4939 35.3639C23.2676 35.3639 23.177 35.456 23.177 35.6863C23.177 36.0086 23.177 36.377 23.177 36.6993C23.177 37.344 22.9507 37.5281 22.3169 37.5742C22.0001 37.6202 21.6379 37.6202 21.2758 37.6202ZM19.3746 32.8314C18.4692 32.8314 18.5145 32.8314 18.5145 33.5221C18.5145 33.8904 18.6503 33.9365 18.9219 33.9365C19.2388 33.8904 19.5556 33.9365 19.8725 33.9365C20.4157 33.9365 20.6873 34.2128 20.7326 34.7653C20.7326 34.9956 20.7326 35.1798 20.7326 35.41C20.7326 35.7784 20.5515 36.2388 21.2758 36.1928C21.9548 36.1928 21.7737 35.7784 21.819 35.41C21.819 35.1337 21.819 34.9035 21.819 34.6272C21.819 34.1207 22.0906 33.8904 22.5433 33.8904C22.9054 33.8904 23.3128 33.8904 23.675 33.8904C23.7655 33.8904 23.9466 33.9365 23.9466 33.7983C23.9918 33.476 24.0371 33.1537 23.9466 32.8774C23.9013 32.6472 23.5844 32.7853 23.4034 32.7853C21.7737 32.7853 21.7737 32.7853 21.7737 31.1276C21.7737 30.6672 21.6832 30.529 21.2305 30.529C20.7779 30.529 20.642 30.6211 20.6873 31.0816C20.7326 31.3579 20.6873 31.6802 20.6873 31.9565C20.642 32.463 20.3704 32.7393 19.8725 32.7393C19.6914 32.8314 19.5556 32.8314 19.3746 32.8314Z" fill="#FA8A9D"/>
</g>
</g>
<defs>
<clipPath id="clip0_48_35">
<rect width="44" height="53" fill="white"/>
</clipPath>
</defs>
</svg>
