<svg width="49" height="52" viewBox="0 0 49 52" fill="none" xmlns="http://www.w3.org/2000/svg">
<g id="Group">
<path id="Vector" d="M34.6951 16.1493C33.9106 14.907 33.08 13.6648 32.2955 12.4225C32.0186 11.9624 31.6494 11.7323 31.0495 11.7323C29.296 11.7783 27.5424 11.7323 25.7889 11.7323C27.0348 11.2262 28.3269 10.7661 29.5729 10.26C32.4801 9.15578 35.3873 8.05154 38.2945 6.90129C38.4791 6.85528 38.6175 6.62523 38.8482 6.80927C38.8482 6.76326 38.8021 6.76326 38.8021 6.71725H38.8482C38.8482 6.76326 38.8482 6.76326 38.8482 6.80927C38.0176 8.60366 37.2793 10.4441 37.187 12.4685C37.0485 14.907 38.1099 16.7934 40.2326 17.9897C42.3092 19.1399 44.4781 19.0479 46.4162 17.6676C48.4005 16.2873 49.2312 14.2629 48.862 11.8704C48.539 9.66189 47.8006 7.63745 46.6008 5.79705C46.2316 5.24494 45.7702 4.73883 45.2626 4.23272C46.0932 4.00267 46.8315 3.72661 47.5237 3.45055C48.1236 3.17449 48.3544 2.7604 48.1698 2.3003C47.9852 1.74818 47.5237 1.61015 46.8777 1.8402C46.2316 2.07025 45.6317 2.39232 44.8011 2.57636C45.078 2.11626 45.3087 1.74818 45.4933 1.3801C45.7702 0.873989 45.6779 0.41389 45.2626 0.13783C44.8473 -0.13823 44.3396 -0.000199904 44.0166 0.50591C43.5552 1.24207 43.0937 1.97823 42.6322 2.7604C42.4477 3.08247 42.3092 3.17449 41.94 2.94444C41.3863 2.57636 40.7864 2.25429 40.2326 1.93222C39.6789 1.61015 39.1713 1.74818 38.8944 2.16227C38.6637 2.57636 38.8021 3.08247 39.3559 3.40454C39.7712 3.6806 40.2326 3.91065 40.6941 4.18671C37.4177 5.42898 34.2336 6.67124 31.0495 7.8675C28.1885 8.97174 25.2812 10.03 22.4202 11.1342C21.8664 11.3643 21.3588 11.5943 20.8051 11.7783C19.7898 12.1464 19.7898 12.1464 19.1899 11.3182C19.1438 11.2722 19.1438 11.2262 19.1438 11.2262C18.6823 10.8121 18.59 10.3981 18.8208 9.75391C19.3284 8.05154 19.3284 6.30316 18.8669 4.6008C18.4055 2.94444 16.8365 1.8402 15.0829 1.74818C14.2523 1.70217 13.4217 1.65616 12.591 1.93222C10.8375 2.53035 9.68382 4.09469 9.68382 6.07311C9.63767 7.95952 9.68382 9.79992 9.68382 11.6863C9.68382 12.5145 10.0068 12.7906 10.8375 12.8366C11.6681 12.8826 12.5449 12.8826 13.3755 12.8826C13.837 13.1586 13.9754 13.7108 14.2523 14.1249C14.3907 14.3089 14.2062 14.3549 14.0677 14.4009C12.0834 15.1371 10.1453 15.9653 8.11484 16.6554C8.0687 16.7474 7.97641 16.7934 7.83797 16.7474C6.7766 17.1615 5.66909 17.5756 4.60773 18.0357C4.23856 18.1737 4.05397 17.9897 3.82324 17.8057C3.17719 17.3916 2.53114 17.0695 1.7928 17.2995C0.962173 17.5296 0.36227 18.0357 0.131542 18.9099C-0.0991898 19.7381 0.177689 20.4742 0.823734 21.0264C1.70051 21.8085 2.62344 22.5447 3.54636 23.3268C3.82324 23.5109 4.10012 23.7409 4.33085 23.925C5.89982 25.2133 7.4688 26.5015 9.03777 27.7898C11.0221 29.4002 13.4678 28.8941 14.6215 26.6856C14.9906 25.9954 15.3137 25.2593 15.6828 24.5691C15.729 24.4311 15.7751 24.247 15.9597 24.201C17.2518 26.1335 18.5439 28.1119 19.8821 30.0443C20.1129 30.4124 20.0667 30.5964 19.7898 30.8725C17.944 32.6669 16.1443 34.5073 14.3446 36.3017C13.837 36.8078 13.4678 37.3599 13.2371 38.004C12.8679 39.2463 13.0525 40.4425 13.7908 41.5008C15.729 44.3994 17.6671 47.344 19.6053 50.2427C19.8821 50.6568 20.2052 51.0708 20.482 51.5309C20.7128 51.853 20.9435 52.0371 21.3588 51.991C21.7741 51.945 22.0049 51.669 22.1433 51.2549C22.2356 50.9328 22.3279 50.6107 22.4663 50.3347C23.297 48.3103 22.9739 46.4238 21.9126 44.5374C21.0358 43.0191 20.3436 41.3627 19.513 39.7984C19.2822 39.3843 19.3284 39.2003 19.6976 38.8782C21.4973 37.4979 23.2508 36.1176 25.0044 34.6913C25.3274 34.4152 25.512 34.5073 25.7427 34.7373C26.7579 35.7035 27.8193 36.6237 28.7884 37.5899C30.0343 38.8322 31.511 39.2923 33.2184 39.1083C35.3411 38.9242 37.4639 38.8322 39.5866 38.6942C42.3554 38.6482 45.078 38.4641 47.8006 38.2801C48.3544 38.2341 48.8158 38.1421 48.9543 37.5439C49.0927 36.9918 48.7235 36.7157 48.3082 36.4397C46.8777 35.5655 45.5395 34.5533 43.832 34.2772C42.9091 34.1392 41.9862 34.0932 41.1094 34.0012C38.8944 33.9551 36.6794 33.6791 34.5105 33.5871C34.1413 33.5871 34.049 33.311 33.8645 33.081C30.6804 28.0659 27.5424 23.0508 24.4045 18.0357C24.3122 17.8977 24.1737 17.7596 24.1737 17.4836C25.5581 17.2075 26.9887 16.9315 28.373 16.6094C28.7884 16.5174 29.0191 16.6094 29.2498 16.9315C30.5881 18.4958 31.9263 20.0601 33.2646 21.6245C34.1413 22.6367 35.295 22.7747 36.2179 22.0846C37.1408 21.3944 37.2793 20.2442 36.5871 19.1399C35.9872 18.1737 35.3873 17.2535 34.7874 16.2873L34.8335 16.2413V16.2873C34.7874 16.2413 34.7412 16.1953 34.6951 16.1493ZM26.8502 13.5267C28.0039 13.5267 29.2498 13.5267 30.4496 13.5267C30.7265 13.5267 30.9572 13.5727 31.1418 13.8488C32.4339 15.9192 33.7722 17.9897 35.1104 20.0601C35.2488 20.2902 35.4334 20.5202 35.1565 20.7043C34.8797 20.9343 34.6489 20.6583 34.4644 20.4742C32.9877 18.7259 31.511 17.0235 30.0343 15.2751C29.6651 14.861 29.296 14.677 28.7884 14.769C26.7118 15.2291 24.6352 15.6432 22.5586 16.0573C21.7741 16.2413 21.5896 16.7934 22.0049 17.4836C22.2817 17.9897 22.6048 18.4958 22.9278 18.9559C24.9121 22.0846 26.8502 25.2133 28.8345 28.3419C28.9729 28.572 29.296 28.848 28.6961 28.8941C26.5272 29.1241 24.3583 29.4002 22.1895 29.6762C21.8203 29.7222 21.6818 29.6302 21.4973 29.3542C20.2513 27.4677 19.0054 25.6273 17.7594 23.7409C16.8826 22.4527 16.8826 22.4527 17.7594 21.2104C18.1286 20.6583 18.1286 20.1982 17.6671 19.8761C17.2518 19.6 16.7442 19.6921 16.375 20.1982C15.5905 21.2104 14.806 22.2686 14.2984 23.4649C13.9754 24.2931 13.514 25.0752 13.0986 25.8574C12.4064 27.1457 11.2528 27.4217 10.0991 26.5015C8.25328 25.0292 6.45358 23.5109 4.60773 21.9926C3.73095 21.3024 2.90031 20.5662 2.02354 19.8761C1.7928 19.6921 1.65437 19.462 1.83895 19.186C2.02354 18.9099 2.30042 18.9559 2.57729 19.0939C2.71573 19.186 2.85417 19.278 2.99261 19.37C5.34607 20.7963 7.65338 22.1766 10.0068 23.6029C10.7913 24.063 11.1605 23.971 11.622 23.1888C12.0373 22.4527 12.4526 21.7625 12.9141 21.0264C13.9293 19.508 14.806 17.8977 16.2827 16.7014C17.944 15.3211 19.7437 14.2169 21.8664 13.8028C23.5738 13.4807 25.189 13.7108 26.8502 13.5267ZM38.9405 12.2384C39.1251 10.4441 39.8635 8.3276 41.2017 6.44119C42.4938 4.69282 43.6936 4.69282 44.9857 6.53321C46.2316 8.23558 46.9238 10.122 47.2469 12.1924C47.616 14.631 45.8163 16.8855 43.509 17.0235C40.8325 17.2075 38.8944 15.4131 38.9405 12.2384ZM45.1703 36.7157C43.6936 36.8078 42.2169 36.8998 40.7402 37.0378C38.3868 37.1758 35.9872 37.3139 33.6337 37.5439C32.0186 37.6819 30.6342 37.4519 29.5729 36.1176C29.5267 36.0256 29.4344 35.9796 29.3421 35.8876C27.5886 34.2772 26.0196 32.4828 23.8507 31.3786C23.8507 31.3786 23.8507 31.3326 23.8507 31.2406C25.7889 31.0105 27.6809 30.7805 29.619 30.5044C30.0805 30.4584 30.265 30.5964 30.4958 30.9645C31.2341 32.2068 32.0186 33.403 32.8031 34.5993C33.08 35.0134 33.403 35.2434 33.9106 35.2894C36.9101 35.4735 39.9096 35.7035 42.9091 35.9336C43.6936 35.9796 44.4781 36.2096 45.1703 36.7157ZM20.9896 49.1844C20.3897 48.2642 19.7898 47.39 19.2361 46.5619C17.8978 44.5834 16.5596 42.605 15.2675 40.5806C14.6215 39.6144 14.6215 38.6021 15.3598 37.82C17.2518 35.8416 19.2361 33.9551 21.1281 32.0227C21.2665 31.8387 21.405 31.8387 21.5895 31.9767C22.374 32.4828 23.1124 32.9429 23.943 33.449C21.9126 35.0594 19.9283 36.5777 17.9901 38.1421C17.1595 38.7862 17.1595 38.9242 17.621 39.8904C18.7285 42.0529 19.7898 44.2154 20.8974 46.4238C21.3127 47.298 21.4511 48.1722 20.9896 49.1844ZM11.3912 8.37361C11.3912 7.59144 11.3912 6.80927 11.3912 6.07311C11.4374 4.64681 12.3603 3.63459 13.7447 3.45055C14.2061 3.40454 14.7138 3.40454 15.1752 3.49656C16.4673 3.72661 17.3441 4.69282 17.3441 5.98109C17.3441 6.71725 17.3441 7.45341 17.3441 8.18957C17.3441 9.89194 16.1443 11.0882 14.4369 11.1342C13.5601 11.1342 12.7295 11.1342 11.8527 11.1342C11.4374 11.1342 11.2989 11.0422 11.2989 10.6281C11.4374 9.84593 11.3912 9.10977 11.3912 8.37361ZM14.2061 16.1953C12.8679 17.9437 11.7604 19.7841 10.6529 21.6245C10.5606 21.8085 10.4683 21.8545 10.2376 21.7625C8.94548 20.9803 7.60723 20.1522 6.1767 19.324C8.94547 18.2197 11.5758 17.2075 14.2061 16.1953ZM18.1747 12.8366C17.5748 13.0666 17.0211 13.2507 16.4673 13.5267C15.8213 13.8488 15.6828 13.2967 15.5444 12.9746C15.3598 12.5145 15.8674 12.6985 16.052 12.5605C16.2366 12.4225 16.5135 12.4225 16.6519 12.2845C17.2057 11.7783 17.621 11.9624 17.944 12.5605C18.0363 12.6525 18.0824 12.6985 18.1747 12.8366Z" fill="#30D2A0"/>
<path id="Vector_2" d="M9.40684 46.1492C9.86831 44.953 9.82216 43.8487 8.94538 42.8365C8.02246 41.7783 6.82266 41.6402 5.53056 42.0543C4.05388 42.9745 3.40783 44.2168 3.82315 45.6431C4.19232 46.8394 4.97681 47.6215 6.2689 47.8056C7.65329 47.9896 8.71465 47.3915 9.40684 46.1492ZM5.43827 44.8609C5.43827 44.1708 5.99202 43.6187 6.68422 43.5727C7.33027 43.5727 7.97631 44.1708 7.97631 44.8609C7.97631 45.5511 7.37641 46.1032 6.68422 46.1032C5.99202 46.1032 5.43827 45.5511 5.43827 44.8609Z" fill="#30D2A0"/>
<path id="Vector_3" d="M34.6953 16.1504C34.7415 16.1964 34.7415 16.2424 34.7876 16.2884C34.7876 16.2424 34.7415 16.1964 34.6953 16.1504Z" fill="#30D2A0"/>
<path id="Vector_4" d="M38.8481 6.90257C38.8481 6.85656 38.8481 6.85656 38.8481 6.81055H38.802C38.8481 6.85656 38.8481 6.85656 38.8481 6.90257Z" fill="#30D2A0"/>
<path id="Vector_5" d="M6.03843 36.2093C6.03843 36.7154 6.49989 37.1295 6.96135 37.1295C7.46896 37.1295 7.88428 36.7154 7.88428 36.2093C7.88428 35.7032 7.46896 35.2891 6.96135 35.2891C6.45374 35.2891 6.03843 35.7032 6.03843 36.2093Z" fill="#30D2A0"/>
</g>
</svg>
